<svg xmlns="http://www.w3.org/2000/svg" xmlns:xlink="http://www.w3.org/1999/xlink" xmlns:lucid="lucid" width="1760" height="1154"><g transform="translate(0 0)" lucid:page-tab-id="HWEp-vi-RSFO"><path d="M0 0h1760v1360H0z" fill="#fff"/><path d="M1200 204h340v112h-340z" stroke="#333" stroke-width="2" fill="#fff"/><path d="M1200 258.4h340" stroke="#333" stroke-width="2" fill="none"/><use xlink:href="#a" transform="matrix(1,0,0,1,1208,212) translate(110.06666666666666 13.100000000000001)"/><use xlink:href="#b" transform="matrix(1,0,0,1,1208,212) translate(114.11111111111111 32.300000000000004)"/><use xlink:href="#c" transform="matrix(1,0,0,1,1212,266.4) translate(0 24.7)"/><use xlink:href="#d" transform="matrix(1,0,0,1,1212,266.4) translate(13.777777777777779 24.7)"/><use xlink:href="#e" transform="matrix(1,0,0,1,1212,266.4) translate(152.26666666666668 24.7)"/><use xlink:href="#f" transform="matrix(1,0,0,1,1212,266.4) translate(161.15555555555557 24.7)"/><use xlink:href="#e" transform="matrix(1,0,0,1,1212,266.4) translate(265.02222222222224 24.7)"/><use xlink:href="#g" transform="matrix(1,0,0,1,1212,266.4) translate(273.91111111111115 24.7)"/><path d="M40 60h380v415H40z" stroke="#333" stroke-width="2" fill="#fff"/><path d="M40 95.2h380M40 234.1h380" stroke="#333" stroke-width="2" fill="none"/><use xlink:href="#h" transform="matrix(1,0,0,1,48,68) translate(154.93333333333334 13.2)"/><use xlink:href="#i" transform="matrix(1,0,0,1,52,103.2) translate(0 27.366666666666667)"/><use xlink:href="#j" transform="matrix(1,0,0,1,52,103.2) translate(12.97777777777778 27.366666666666667)"/><use xlink:href="#k" transform="matrix(1,0,0,1,52,103.2) translate(72.17777777777779 27.366666666666667)"/><use xlink:href="#l" transform="matrix(1,0,0,1,52,103.2) translate(84.02962962962964 27.366666666666667)"/><use xlink:href="#i" transform="matrix(1,0,0,1,52,103.2) translate(0 52.966666666666676)"/><use xlink:href="#m" transform="matrix(1,0,0,1,52,103.2) translate(12.97777777777778 52.966666666666676)"/><use xlink:href="#k" transform="matrix(1,0,0,1,52,103.2) translate(54.45925925925926 52.966666666666676)"/><use xlink:href="#n" transform="matrix(1,0,0,1,52,103.2) translate(66.31111111111112 52.966666666666676)"/><use xlink:href="#i" transform="matrix(1,0,0,1,52,103.2) translate(0 78.56666666666668)"/><use xlink:href="#o" transform="matrix(1,0,0,1,52,103.2) translate(12.97777777777778 78.56666666666668)"/><use xlink:href="#k" transform="matrix(1,0,0,1,52,103.2) translate(76.91851851851852 78.56666666666668)"/><use xlink:href="#n" transform="matrix(1,0,0,1,52,103.2) translate(88.77037037037037 78.56666666666668)"/><use xlink:href="#i" transform="matrix(1,0,0,1,52,103.2) translate(0 104.16666666666669)"/><use xlink:href="#p" transform="matrix(1,0,0,1,52,103.2) translate(12.97777777777778 104.16666666666669)"/><use xlink:href="#k" transform="matrix(1,0,0,1,52,103.2) translate(80.41481481481482 104.16666666666669)"/><use xlink:href="#q" transform="matrix(1,0,0,1,52,103.2) translate(92.26666666666667 104.16666666666669)"/><use xlink:href="#r" transform="matrix(1,0,0,1,52,242.10000000000002) translate(0 27.666666666666664)"/><use xlink:href="#s" transform="matrix(1,0,0,1,52,242.10000000000002) translate(18.370370370370374 27.666666666666664)"/><use xlink:href="#k" transform="matrix(1,0,0,1,52,242.10000000000002) translate(124.80000000000001 27.666666666666664)"/><use xlink:href="#l" transform="matrix(1,0,0,1,52,242.10000000000002) translate(136.65185185185186 27.666666666666664)"/><use xlink:href="#r" transform="matrix(1,0,0,1,52,242.10000000000002) translate(0 53.26666666666667)"/><use xlink:href="#t" transform="matrix(1,0,0,1,52,242.10000000000002) translate(18.370370370370374 53.26666666666667)"/><use xlink:href="#k" transform="matrix(1,0,0,1,52,242.10000000000002) translate(169.83703703703702 53.26666666666667)"/><use xlink:href="#u" transform="matrix(1,0,0,1,52,242.10000000000002) translate(181.68888888888887 53.26666666666667)"/><use xlink:href="#k" transform="matrix(1,0,0,1,52,242.10000000000002) translate(250.25185185185182 53.26666666666667)"/><use xlink:href="#v" transform="matrix(1,0,0,1,52,242.10000000000002) translate(262.1037037037037 53.26666666666667)"/><use xlink:href="#r" transform="matrix(1,0,0,1,52,242.10000000000002) translate(0 78.86666666666667)"/><use xlink:href="#w" transform="matrix(1,0,0,1,52,242.10000000000002) translate(18.370370370370374 78.86666666666667)"/><use xlink:href="#k" transform="matrix(1,0,0,1,52,242.10000000000002) translate(105.95555555555558 78.86666666666667)"/><use xlink:href="#n" transform="matrix(1,0,0,1,52,242.10000000000002) translate(117.80740740740742 78.86666666666667)"/><use xlink:href="#r" transform="matrix(1,0,0,1,52,242.10000000000002) translate(0 104.46666666666667)"/><use xlink:href="#x" transform="matrix(1,0,0,1,52,242.10000000000002) translate(18.370370370370374 104.46666666666667)"/><use xlink:href="#k" transform="matrix(1,0,0,1,52,242.10000000000002) translate(133.27407407407406 104.46666666666667)"/><use xlink:href="#y" transform="matrix(1,0,0,1,52,242.10000000000002) translate(145.1259259259259 104.46666666666667)"/><use xlink:href="#k" transform="matrix(1,0,0,1,52,242.10000000000002) translate(224.4148148148148 104.46666666666667)"/><use xlink:href="#v" transform="matrix(1,0,0,1,52,242.10000000000002) translate(236.26666666666665 104.46666666666667)"/><use xlink:href="#r" transform="matrix(1,0,0,1,52,242.10000000000002) translate(0 130.0666666666667)"/><use xlink:href="#z" transform="matrix(1,0,0,1,52,242.10000000000002) translate(18.370370370370374 130.0666666666667)"/><use xlink:href="#k" transform="matrix(1,0,0,1,52,242.10000000000002) translate(129.54074074074074 130.0666666666667)"/><use xlink:href="#n" transform="matrix(1,0,0,1,52,242.10000000000002) translate(141.3925925925926 130.0666666666667)"/><use xlink:href="#r" transform="matrix(1,0,0,1,52,242.10000000000002) translate(0 155.66666666666669)"/><use xlink:href="#A" transform="matrix(1,0,0,1,52,242.10000000000002) translate(18.370370370370374 155.66666666666669)"/><use xlink:href="#k" transform="matrix(1,0,0,1,52,242.10000000000002) translate(179.31851851851852 155.66666666666669)"/><use xlink:href="#y" transform="matrix(1,0,0,1,52,242.10000000000002) translate(191.17037037037036 155.66666666666669)"/><use xlink:href="#k" transform="matrix(1,0,0,1,52,242.10000000000002) translate(270.4592592592593 155.66666666666669)"/><use xlink:href="#v" transform="matrix(1,0,0,1,52,242.10000000000002) translate(282.31111111111113 155.66666666666669)"/><use xlink:href="#r" transform="matrix(1,0,0,1,52,242.10000000000002) translate(0 181.26666666666668)"/><use xlink:href="#B" transform="matrix(1,0,0,1,52,242.10000000000002) translate(18.370370370370374 181.26666666666668)"/><use xlink:href="#k" transform="matrix(1,0,0,1,52,242.10000000000002) translate(133.86666666666667 181.26666666666668)"/><use xlink:href="#n" transform="matrix(1,0,0,1,52,242.10000000000002) translate(145.71851851851852 181.26666666666668)"/><use xlink:href="#r" transform="matrix(1,0,0,1,52,242.10000000000002) translate(0 206.86666666666667)"/><use xlink:href="#C" transform="matrix(1,0,0,1,52,242.10000000000002) translate(18.370370370370374 206.86666666666667)"/><use xlink:href="#k" transform="matrix(1,0,0,1,52,242.10000000000002) translate(187.14074074074074 206.86666666666667)"/><use xlink:href="#y" transform="matrix(1,0,0,1,52,242.10000000000002) translate(198.9925925925926 206.86666666666667)"/><use xlink:href="#k" transform="matrix(1,0,0,1,52,242.10000000000002) translate(278.2814814814815 206.86666666666667)"/><use xlink:href="#D" transform="matrix(1,0,0,1,52,242.10000000000002) translate(290.1333333333333 206.86666666666667)"/><path d="M1220 940h300v174h-300z" stroke="#333" stroke-width="2" fill="#fff"/><path d="M1220 975.2h300" stroke="#333" stroke-width="2" fill="none"/><use xlink:href="#E" transform="matrix(1,0,0,1,1228,948) translate(119.84444444444443 13.2)"/><path d="M540 124h380v287H540z" stroke="#333" stroke-width="2" fill="#fff"/><path d="M540 159.2h380m-380 87.7h380" stroke="#333" stroke-width="2" fill="none"/><use xlink:href="#F" transform="matrix(1,0,0,1,548,132) translate(155.82222222222222 13.2)"/><use xlink:href="#i" transform="matrix(1,0,0,1,552,167.2) translate(0 27.46666666666667)"/><use xlink:href="#G" transform="matrix(1,0,0,1,552,167.2) translate(12.97777777777778 27.46666666666667)"/><use xlink:href="#k" transform="matrix(1,0,0,1,552,167.2) translate(107.61481481481482 27.46666666666667)"/><use xlink:href="#H" transform="matrix(1,0,0,1,552,167.2) translate(119.46666666666667 27.46666666666667)"/><use xlink:href="#I" transform="matrix(1,0,0,1,552,167.2) translate(0 53.06666666666667)"/><use xlink:href="#k" transform="matrix(1,0,0,1,552,167.2) translate(120.77037037037036 53.06666666666667)"/><use xlink:href="#J" transform="matrix(1,0,0,1,552,167.2) translate(132.6222222222222 53.06666666666667)"/><g><use xlink:href="#r" transform="matrix(1,0,0,1,552,254.89999999999998) translate(0 27.566666666666656)"/><use xlink:href="#K" transform="matrix(1,0,0,1,552,254.89999999999998) translate(18.370370370370374 27.566666666666656)"/><use xlink:href="#k" transform="matrix(1,0,0,1,552,254.89999999999998) translate(104.71111111111111 27.566666666666656)"/><use xlink:href="#v" transform="matrix(1,0,0,1,552,254.89999999999998) translate(116.56296296296296 27.566666666666656)"/><use xlink:href="#r" transform="matrix(1,0,0,1,552,254.89999999999998) translate(0 53.166666666666664)"/><use xlink:href="#L" transform="matrix(1,0,0,1,552,254.89999999999998) translate(18.370370370370374 53.166666666666664)"/><use xlink:href="#M" transform="matrix(1,0,0,1,552,254.89999999999998) translate(293.03703703703707 53.166666666666664)"/><use xlink:href="#N" transform="matrix(1,0,0,1,552,254.89999999999998) translate(0 78.76666666666667)"/><use xlink:href="#k" transform="matrix(1,0,0,1,552,254.89999999999998) translate(131.37777777777777 78.76666666666667)"/><use xlink:href="#v" transform="matrix(1,0,0,1,552,254.89999999999998) translate(143.2296296296296 78.76666666666667)"/><use xlink:href="#r" transform="matrix(1,0,0,1,552,254.89999999999998) translate(0 104.36666666666667)"/><use xlink:href="#O" transform="matrix(1,0,0,1,552,254.89999999999998) translate(18.370370370370374 104.36666666666667)"/><use xlink:href="#k" transform="matrix(1,0,0,1,552,254.89999999999998) translate(156.8 104.36666666666667)"/><use xlink:href="#P" transform="matrix(1,0,0,1,552,254.89999999999998) translate(168.65185185185186 104.36666666666667)"/><use xlink:href="#k" transform="matrix(1,0,0,1,552,254.89999999999998) translate(249.12592592592594 104.36666666666667)"/><use xlink:href="#v" transform="matrix(1,0,0,1,552,254.89999999999998) translate(260.9777777777778 104.36666666666667)"/><use xlink:href="#r" transform="matrix(1,0,0,1,552,254.89999999999998) translate(0 129.96666666666667)"/><use xlink:href="#Q" transform="matrix(1,0,0,1,552,254.89999999999998) translate(18.370370370370374 129.96666666666667)"/><use xlink:href="#k" transform="matrix(1,0,0,1,552,254.89999999999998) translate(102.34074074074076 129.96666666666667)"/><use xlink:href="#R" transform="matrix(1,0,0,1,552,254.89999999999998) translate(114.1925925925926 129.96666666666667)"/><use xlink:href="#k" transform="matrix(1,0,0,1,552,254.89999999999998) translate(227.6740740740741 129.96666666666667)"/><use xlink:href="#D" transform="matrix(1,0,0,1,552,254.89999999999998) translate(239.52592592592595 129.96666666666667)"/></g><path d="M1446.67 400H1740v108h-293.33z" stroke="#333" stroke-width="2" fill="#fff"/><path d="M1446.67 435.2H1740" stroke="#333" stroke-width="2" fill="none"/><g><use xlink:href="#S" transform="matrix(1,0,0,1,1454.666666666667,408) translate(69.35555555555554 13.2)"/></g><g><use xlink:href="#r" transform="matrix(1,0,0,1,1458.6666666666667,443.2) translate(0 19.96666666666667)"/><use xlink:href="#T" transform="matrix(1,0,0,1,1458.6666666666667,443.2) translate(18.370370370370374 19.96666666666667)"/><use xlink:href="#M" transform="matrix(1,0,0,1,1458.6666666666667,443.2) translate(203.0222222222222 19.96666666666667)"/><use xlink:href="#U" transform="matrix(1,0,0,1,1458.6666666666667,443.2) translate(0 45.56666666666668)"/><use xlink:href="#k" transform="matrix(1,0,0,1,1458.6666666666667,443.2) translate(138.48888888888888 45.56666666666668)"/><use xlink:href="#D" transform="matrix(1,0,0,1,1458.6666666666667,443.2) translate(150.34074074074073 45.56666666666668)"/></g><path d="M1000 400h293.33v108H1000z" stroke="#333" stroke-width="2" fill="#fff"/><path d="M1000 435.2h293.33" stroke="#333" stroke-width="2" fill="none"/><g><use xlink:href="#V" transform="matrix(1,0,0,1,1008,408) translate(76.04444444444444 13.2)"/></g><g><use xlink:href="#r" transform="matrix(1,0,0,1,1012,443.2) translate(0 19.96666666666667)"/><use xlink:href="#T" transform="matrix(1,0,0,1,1012,443.2) translate(18.370370370370374 19.96666666666667)"/><use xlink:href="#M" transform="matrix(1,0,0,1,1012,443.2) translate(203.0222222222222 19.96666666666667)"/><use xlink:href="#U" transform="matrix(1,0,0,1,1012,443.2) translate(0 45.56666666666668)"/><use xlink:href="#k" transform="matrix(1,0,0,1,1012,443.2) translate(138.48888888888888 45.56666666666668)"/><use xlink:href="#D" transform="matrix(1,0,0,1,1012,443.2) translate(150.34074074074073 45.56666666666668)"/></g><path d="M1000 680h293.33v108H1000z" stroke="#333" stroke-width="2" fill="#fff"/><path d="M1000 715.2h293.33" stroke="#333" stroke-width="2" fill="none"/><g><use xlink:href="#W" transform="matrix(1,0,0,1,1008,688) translate(66.3111111111111 13.2)"/></g><g><use xlink:href="#r" transform="matrix(1,0,0,1,1012,723.2) translate(0 19.96666666666667)"/><use xlink:href="#T" transform="matrix(1,0,0,1,1012,723.2) translate(18.370370370370374 19.96666666666667)"/><use xlink:href="#M" transform="matrix(1,0,0,1,1012,723.2) translate(203.0222222222222 19.96666666666667)"/><use xlink:href="#U" transform="matrix(1,0,0,1,1012,723.2) translate(0 45.56666666666668)"/><use xlink:href="#k" transform="matrix(1,0,0,1,1012,723.2) translate(138.48888888888888 45.56666666666668)"/><use xlink:href="#D" transform="matrix(1,0,0,1,1012,723.2) translate(150.34074074074073 45.56666666666668)"/></g><path d="M1420 699.83h293.33v108H1420z" stroke="#333" stroke-width="2" fill="#fff"/><path d="M1420 735.03h293.33" stroke="#333" stroke-width="2" fill="none"/><g><use xlink:href="#X" transform="matrix(1,0,0,1,1428,707.8328947002899) translate(80.64444444444445 13.2)"/></g><g><use xlink:href="#r" transform="matrix(1,0,0,1,1432,743.03289470029) translate(0 19.96666666666667)"/><use xlink:href="#T" transform="matrix(1,0,0,1,1432,743.03289470029) translate(18.370370370370374 19.96666666666667)"/><use xlink:href="#M" transform="matrix(1,0,0,1,1432,743.03289470029) translate(203.0222222222222 19.96666666666667)"/><use xlink:href="#U" transform="matrix(1,0,0,1,1432,743.03289470029) translate(0 45.56666666666668)"/><use xlink:href="#k" transform="matrix(1,0,0,1,1432,743.03289470029) translate(138.48888888888888 45.56666666666668)"/><use xlink:href="#D" transform="matrix(1,0,0,1,1432,743.03289470029) translate(150.34074074074073 45.56666666666668)"/></g><path d="M423 267.5h84.5" stroke="#333" stroke-width="4" fill="none"/><path d="M423.05 269.5H421v-4h2.05z" stroke="#333" stroke-width=".05" fill="#333"/><path d="M536.17 267.5l-14.85 14.85-15.15-14.85 15.15-14.85z" stroke="#333" stroke-width="4" fill="#fff"/><path d="M923 267.5h244.5" stroke="#333" stroke-width="4" fill="none"/><path d="M923.05 269.5H921v-4h2.05z" stroke="#333" stroke-width=".05" fill="#333"/><path d="M1196.17 267.5l-14.85 14.85-15.15-14.85 15.15-14.85z" stroke="#333" stroke-width="4" fill="#fff"/><path d="M1146.67 397v-5.7m0-7.6v-11.38m0-7.6v-11.38m0-7.6v-11.4m0-7.58v-5.7l.14-1.87.45-1.84.5-1.22m4.34-5.08l1.12-.7 1.74-.7 1.83-.45 5.83-.03m7.8-.06l5.83-.03" stroke="#333" stroke-width="4" fill="none"/><path d="M1148.67 399h-4v-2.05h4z" stroke="#333" stroke-width=".05" fill="#333"/><path d="M1192.53 309.07l-14.27 4.63v-9.27z" stroke="#333" stroke-width="4" fill="#333"/><path d="M1146.67 677v-6.25m0-8.33v-12.5m0-8.34v-12.5m0-8.33v-12.5m0-8.33v-12.5m0-8.34v-12.5m0-8.33V552l.14-1.88.45-1.83.5-1.23m4.34-5.07l1.12-.7 1.74-.7 1.83-.45h6.33m8.46-.02h12.68m8.45-.02h12.7m8.45 0l12.7-.02m8.44 0l12.7-.02m8.45 0l12.68-.02m8.46 0l12.7-.03m8.46 0h6.34l1.88-.15 1.83-.44 1.23-.5m5.07-4.33l.7-1.12.7-1.74.45-1.82v-5.7m0-7.6l.02-11.42m0-7.6l.02-11.4m0-7.62v-11.4m0-7.6l.02-11.42m0-7.6V429.1m.02-7.6v-11.4m0-7.62l.02-11.4m0-7.6v-11.42m.02-7.6v-11.4m.02-7.62v-5.7" stroke="#333" stroke-width="4" fill="none"/><path d="M1148.67 679h-4v-2.05h4z" stroke="#333" stroke-width=".05" fill="#333"/><path d="M1316.8 323.47l4.64 14.27h-9.28z" stroke="#333" stroke-width="4" fill="#333"/><path d="M1566.67 696.83v-6.2m0-8.28v-12.4m0-8.3v-12.4m0-8.28v-12.42m0-8.27v-12.42m0-8.27v-12.43m0-8.27v-12.42m0-8.27V552l-.15-1.88-.44-1.83-.5-1.23m-4.34-5.07l-1.13-.7-1.73-.7-1.83-.45h-5.8m-7.77 0l-11.64-.02m-7.76 0l-11.63-.02m-7.76 0h-11.64m-7.75 0l-11.65-.02m-7.76 0l-11.64-.02m-7.76 0l-11.64-.02m-7.75 0h-11.63m-7.76-.02h-11.62m-7.76-.02H1382l-1.88-.15-1.83-.44-1.23-.5m-5.07-4.33l-.7-1.12-.7-1.74-.45-1.82v-5.7m0-7.6l-.02-11.42m0-7.6l-.02-11.4m0-7.62v-11.4m0-7.6l-.02-11.42m0-7.6V429.1m-.02-7.6v-11.4m0-7.62l-.02-11.4m0-7.6v-11.42m-.02-7.6v-11.4m-.02-7.62v-5.7" stroke="#333" stroke-width="4" fill="none"/><path d="M1568.67 698.83h-4v-2.05h4z" stroke="#333" stroke-width=".05" fill="#333"/><path d="M1370 323.47l4.64 14.27h-9.28z" stroke="#333" stroke-width="4" fill="#333"/><path d="M1593.33 397v-6.25m0-8.33v-12.5m0-8.34v-12.5m0-8.33v-12.5m0-8.33v-12.5m0-8.34v-12.5m0-8.33V272l-.14-1.88-.45-1.83-.5-1.23m-4.34-5.07l-1.12-.7-1.74-.7-1.83-.45-5.83-.05m-7.8-.06l-5.83-.04" stroke="#333" stroke-width="4" fill="none"/><path d="M1595.33 399h-4v-2.05h4z" stroke="#333" stroke-width=".05" fill="#333"/><path d="M1547.47 260l14.27-4.64v9.28z" stroke="#333" stroke-width="4" fill="#333"/><path d="M1343.47 937v-6.75m0-9v-13.5m0-9V892l-.15-1.88-.44-1.83-.5-1.23m-4.34-5.07l-1.13-.7-1.73-.7-1.83-.45h-5.82m-7.76 0l-11.65-.02m-7.75 0l-11.65-.02m-7.76 0h-11.64m-7.77 0l-11.64-.02m-7.78 0l-11.64-.02m-7.77 0l-11.63-.02m-7.76 0h-11.64m-7.76-.02h-11.65m-7.76-.02h-5.83l-1.88-.15-1.84-.44-1.22-.5m-5.08-4.33l-.7-1.12-.7-1.74-.45-1.82v-5.82m-.02-7.75l-.03-11.62m-.02-7.75l-.03-11.63m-.02-7.75v-5.8" stroke="#333" stroke-width="4" fill="none"/><path d="M1345.47 939h-4v-2.05h4z" stroke="#333" stroke-width=".05" fill="#333"/><path d="M1146.67 795.47l4.63 14.27h-9.27z" stroke="#333" stroke-width="4" fill="#333"/><path d="M1414.13 937v-5.1m0-6.82v-10.22m0-6.8v-10.22m0-6.82v-5.1l.15-1.88.44-1.83.5-1.2m4.34-5.1l1.13-.68 1.73-.72 1.83-.44h6.2m8.25-.02h12.4m8.25-.03h12.38m8.26-.02h12.38m8.25-.03h12.4m8.24-.02h6.2l1.87-.16 1.83-.44 1.22-.5m5.07-4.34l.7-1.14.7-1.74.45-1.83.02-4.84m.03-6.44l.04-9.67m.04-6.45l.03-4.83" stroke="#333" stroke-width="4" fill="none"/><path d="M1416.13 939h-4v-2.05h4z" stroke="#333" stroke-width=".05" fill="#333"/><path d="M1539.47 815.3l4.63 14.27h-9.27z" stroke="#333" stroke-width="4" fill="#333"/><path d="M1523 1027h5.93m7.92 0h11.86m7.93 0h11.86m7.9 0h11.87m7.92 0h11.85m7.92 0h11.86m7.92 0h11.86m7.93 0h11.86m7.9 0h11.87m7.92 0h11.85m7.92 0h5.93l1.88-.15 1.83-.44 1.23-.5m5.07-4.33l.7-1.12.7-1.74.45-1.82v-6.07m0-8.07V990.6m0-8.1l.02-12.12m0-8.08v-12.13m0-8.1v-12.1m0-8.1v-12.13m.02-8.08v-12.13m0-8.1v-12.12m0-8.07V849.1m0-8.1v-12.1m0-8.1l.02-12.13m0-8.08v-12.14m0-8.1v-12.12m0-8.08v-12.13m.02-8.1v-12.1m0-8.1V707.6m0-8.08V687.4m.02-8.1v-12.13m0-8.08v-12.14m0-8.1v-12.12m0-8.08l.02-12.13m0-8.1v-12.1m0-8.1V566.1m0-8.08l.02-12.13m0-8.1v-6.06" stroke="#333" stroke-width="4" fill="none"/><path d="M1523.05 1029H1521v-4h2.05z" stroke="#333" stroke-width=".05" fill="#333"/><path d="M1732.8 515.47l4.64 14.27h-9.28z" stroke="#333" stroke-width="4" fill="#333"/><path d="M1217 1027h-6.15m-8.2 0h-12.3m-8.2 0h-12.3m-8.2 0h-12.3m-8.2 0h-12.3m-8.2 0h-12.3m-8.2 0h-12.3m-8.2 0h-12.3m-8.2 0h-12.3m-8.2 0h-12.3m-8.2 0h-12.3m-8.2 0h-12.3m-8.2 0H971l-1.88-.15-1.83-.44-1.23-.5m-5.07-4.33l-.7-1.12-.7-1.74-.45-1.82v-6.1m0-8.16v-12.2m0-8.16l-.02-12.22m0-8.14v-12.22m0-8.14v-12.22m0-8.14v-12.22m0-8.15l-.02-12.2m0-8.15v-12.2m0-8.16v-12.23m0-8.14V827.5m0-8.13v-12.22m0-8.15l-.02-12.2m0-8.16v-12.2m0-8.16v-12.22m0-8.14V725.7m-.02-8.14v-12.22m0-8.15v-12.22m0-8.15v-12.2m0-8.16l-.02-12.22m0-8.14v-12.2m0-8.15v-12.22m0-8.15v-12.2M959 575v-12.2m0-8.16v-12.22m0-8.14v-12.22m0-8.14l-.02-12.22m0-8.14v-6.1l.15-1.9.44-1.82.5-1.22m4.33-5.08l1.12-.7 1.74-.7 1.82-.45 7.14-.13" stroke="#333" stroke-width="4" fill="none"/><path d="M1219 1029h-2.05v-4h2.05z" stroke="#333" stroke-width=".05" fill="#333"/><path d="M992.53 475.47l-14.27 4.63v-9.27z" stroke="#333" stroke-width="4" fill="#333"/><path d="M1217 1067.47h-5.94m-7.9 0h-11.9m-7.9 0h-11.88m-7.92 0h-11.87m-7.93 0h-11.87m-7.92 0h-11.88m-7.9 0h-11.9m-7.9 0h-11.88m-7.92 0h-11.87m-7.92 0h-11.86m-7.92 0h-11.87m-7.92 0h-11.88m-7.9 0h-11.9m-7.9 0h-11.88m-7.92 0h-11.87m-7.92 0H914.2m-7.93 0H894.4m-7.92 0H874.6m-7.9 0h-11.9m-7.9 0h-11.88m-7.92 0h-11.87m-7.92 0h-11.86m-7.92 0h-11.87m-7.92 0h-11.88m-7.9 0H742l-1.88-.15-1.83-.44-1.23-.5m-5.07-4.34l-.7-1.13-.7-1.73-.45-1.83v-6.02m0-8.03v-12.07m0-8.03v-12.05m-.02-8.03v-12.05m0-8.04v-12.05m0-8.03V950.9m0-8.04V930.8m0-8.02l-.02-12.05m0-8.03v-12.05m0-8.04v-12.04m0-8.03v-12.05m0-8.04V830.4m0-8.04V810.3m0-8.02l-.02-12.05m0-8.04v-12.06m0-8.03v-12.04m0-8.04v-12.05m0-8.03V709.9m-.02-8.04V689.8m0-8.03v-12.05m0-8.03v-12.06m0-8.04v-12.05m-.02-8.03v-12.05m0-8.03V589.4m0-8.05V569.3m0-8.03v-12.05m0-8.04l-.02-12.05m0-8.03v-12.05m0-8.03v-12.06m0-8.03v-12.05m0-8.03L730 448.8m0-8.04v-6.02" stroke="#333" stroke-width="4" fill="none"/><path d="M1219 1069.47h-2.05v-4h2.05z" stroke="#333" stroke-width=".05" fill="#333"/><path d="M730 418.47l4.64 14.27h-9.28z" stroke="#333" stroke-width="4" fill="#333"/><path d="M1140 840h240v60h-240z" stroke="#000" stroke-opacity="0" stroke-width="4" fill="#fff" fill-opacity="0"/><g><use xlink:href="#Y" transform="matrix(1,0,0,1,1145,845) translate(86.07407407407408 27.933333333333334)"/></g><path d="M1340 825.47h240v60h-240z" stroke="#000" stroke-opacity="0" stroke-width="2" fill="#fff" fill-opacity="0"/><g><use xlink:href="#Y" transform="matrix(1,0,0,1,1345,830.4660105301787) translate(86.07407407407408 27.933333333333334)"/></g><path d="M720 1031.07h240v60H720z" stroke="#000" stroke-opacity="0" stroke-width="2" fill="#fff" fill-opacity="0"/><g><use xlink:href="#Y" transform="matrix(1,0,0,1,725,1036.0733333332169) translate(86.07407407407408 27.933333333333334)"/></g><path d="M1460 980h240v60h-240z" stroke="#000" stroke-opacity="0" stroke-width="2" fill="#fff" fill-opacity="0"/><g><use xlink:href="#Y" transform="matrix(1,0,0,1,1465,985) translate(86.07407407407408 27.933333333333334)"/></g><path d="M970 980h240v60H970z" stroke="#000" stroke-opacity="0" stroke-width="2" fill="#fff" fill-opacity="0"/><g><use xlink:href="#Y" transform="matrix(1,0,0,1,975,985) translate(86.07407407407408 27.933333333333334)"/></g><defs><path d="M15-91v-56l181-69v40L49-119l147 57v40" id="Z"/><path d="M24 0v-248h52V0H24" id="aa"/><path d="M135-194c87-1 58 113 63 194h-50c-7-57 23-157-34-157-59 0-34 97-39 157H25l-1-190h47c2 12-1 28 3 38 12-26 28-41 61-42" id="ab"/><path d="M115-3C79 11 28 4 28-45v-112H4v-33h27l15-45h31v45h36v33H77v99c-1 23 16 31 38 25v30" id="ac"/><path d="M185-48c-13 30-37 53-82 52C43 2 14-33 14-96s30-98 90-98c62 0 83 45 84 108H66c0 31 8 55 39 56 18 0 30-7 34-22zm-45-69c5-46-57-63-70-21-2 6-4 13-4 21h74" id="ad"/><path d="M135-150c-39-12-60 13-60 57V0H25l-1-190h47c2 13-1 29 3 40 6-28 27-53 61-41v41" id="ae"/><path d="M121-226c-27-7-43 5-38 36h38v33H83V0H34v-157H6v-33h28c-9-59 32-81 87-68v32" id="af"/><path d="M133-34C117-15 103 5 69 4 32 3 11-16 11-54c-1-60 55-63 116-61 1-26-3-47-28-47-18 1-26 9-28 27l-52-2c7-38 36-58 82-57s74 22 75 68l1 82c-1 14 12 18 25 15v27c-30 8-71 5-69-32zm-48 3c29 0 43-24 42-57-32 0-66-3-65 30 0 17 8 27 23 27" id="ag"/><path d="M190-63c-7 42-38 67-86 67-59 0-84-38-90-98-12-110 154-137 174-36l-49 2c-2-19-15-32-35-32-30 0-35 28-38 64-6 74 65 87 74 30" id="ah"/><path d="M15-22v-40l146-57-146-57v-40l181 69v56" id="ai"/><g id="a"><use transform="matrix(0.044444444444444446,0,0,0.044444444444444446,0,0)" xlink:href="#Z"/><use transform="matrix(0.044444444444444446,0,0,0.044444444444444446,9.333333333333334,0)" xlink:href="#Z"/><use transform="matrix(0.044444444444444446,0,0,0.044444444444444446,18.666666666666668,0)" xlink:href="#aa"/><use transform="matrix(0.044444444444444446,0,0,0.044444444444444446,23.11111111111111,0)" xlink:href="#ab"/><use transform="matrix(0.044444444444444446,0,0,0.044444444444444446,32.84444444444445,0)" xlink:href="#ac"/><use transform="matrix(0.044444444444444446,0,0,0.044444444444444446,38.13333333333334,0)" xlink:href="#ad"/><use transform="matrix(0.044444444444444446,0,0,0.044444444444444446,47.022222222222226,0)" xlink:href="#ae"/><use transform="matrix(0.044444444444444446,0,0,0.044444444444444446,53.24444444444445,0)" xlink:href="#af"/><use transform="matrix(0.044444444444444446,0,0,0.044444444444444446,58.53333333333334,0)" xlink:href="#ag"/><use transform="matrix(0.044444444444444446,0,0,0.044444444444444446,67.42222222222223,0)" xlink:href="#ah"/><use transform="matrix(0.044444444444444446,0,0,0.044444444444444446,76.31111111111112,0)" xlink:href="#ad"/><use transform="matrix(0.044444444444444446,0,0,0.044444444444444446,85.2,0)" xlink:href="#ai"/><use transform="matrix(0.044444444444444446,0,0,0.044444444444444446,94.53333333333333,0)" xlink:href="#ai"/></g><path d="M169-182c-1-43-94-46-97-3 18 66 151 10 154 114 3 95-165 93-204 36-6-8-10-19-12-30l50-8c3 46 112 56 116 5-17-69-150-10-154-114-4-87 153-88 188-35 5 8 8 18 10 28" id="aj"/><path d="M110-194c64 0 96 36 96 99 0 64-35 99-97 99-61 0-95-36-95-99 0-62 34-99 96-99zm-1 164c35 0 45-28 45-65 0-40-10-65-43-65-34 0-45 26-45 65 0 36 10 65 43 65" id="ak"/><path d="M195-6C206 82 75 100 31 46c-4-6-6-13-8-21l49-6c3 16 16 24 34 25 40 0 42-37 40-79-11 22-30 35-61 35-53 0-70-43-70-97 0-56 18-96 73-97 30 0 46 14 59 34l2-30h47zm-90-29c32 0 41-27 41-63 0-35-9-62-40-62-32 0-39 29-40 63 0 36 9 62 39 62" id="al"/><path d="M123 10C108 53 80 86 19 72V37c35 8 53-11 59-39L3-190h52l48 148c12-52 28-100 44-148h51" id="am"/><g id="b"><use transform="matrix(0.044444444444444446,0,0,0.044444444444444446,0,0)" xlink:href="#aj"/><use transform="matrix(0.044444444444444446,0,0,0.044444444444444446,10.666666666666668,0)" xlink:href="#ak"/><use transform="matrix(0.044444444444444446,0,0,0.044444444444444446,20.400000000000002,0)" xlink:href="#ae"/><use transform="matrix(0.044444444444444446,0,0,0.044444444444444446,26.622222222222224,0)" xlink:href="#ac"/><use transform="matrix(0.044444444444444446,0,0,0.044444444444444446,31.91111111111111,0)" xlink:href="#aj"/><use transform="matrix(0.044444444444444446,0,0,0.044444444444444446,42.57777777777778,0)" xlink:href="#ac"/><use transform="matrix(0.044444444444444446,0,0,0.044444444444444446,47.86666666666668,0)" xlink:href="#ae"/><use transform="matrix(0.044444444444444446,0,0,0.044444444444444446,54.08888888888889,0)" xlink:href="#ag"/><use transform="matrix(0.044444444444444446,0,0,0.044444444444444446,62.97777777777779,0)" xlink:href="#ac"/><use transform="matrix(0.044444444444444446,0,0,0.044444444444444446,68.26666666666668,0)" xlink:href="#ad"/><use transform="matrix(0.044444444444444446,0,0,0.044444444444444446,77.15555555555557,0)" xlink:href="#al"/><use transform="matrix(0.044444444444444446,0,0,0.044444444444444446,86.8888888888889,0)" xlink:href="#am"/></g><path d="M16-127c37-31 93-2 135 6 18-1 32-8 43-16v26c-50 42-130-35-178 9v-25" id="an"/><use transform="matrix(0.044444444444444446,0,0,0.044444444444444446,0,0)" xlink:href="#an" id="c"/><path d="M96-169c-40 0-48 33-48 73s9 75 48 75c24 0 41-14 43-38l32 2c-6 37-31 61-74 61-59 0-76-41-82-99-10-93 101-131 147-64 4 7 5 14 7 22l-32 3c-4-21-16-35-41-35" id="ao"/><path d="M84 4C-5 8 30-112 23-190h32v120c0 31 7 50 39 49 72-2 45-101 50-169h31l1 190h-30c-1-10 1-25-2-33-11 22-28 36-60 37" id="ap"/><path d="M135-143c-3-34-86-38-87 0 15 53 115 12 119 90S17 21 10-45l28-5c4 36 97 45 98 0-10-56-113-15-118-90-4-57 82-63 122-42 12 7 21 19 24 35" id="aq"/><path d="M59-47c-2 24 18 29 38 22v24C64 9 27 4 27-40v-127H5v-23h24l9-43h21v43h35v23H59v120" id="ar"/><path d="M100-194c62-1 85 37 85 99 1 63-27 99-86 99S16-35 15-95c0-66 28-99 85-99zM99-20c44 1 53-31 53-75 0-43-8-75-51-75s-53 32-53 75 10 74 51 75" id="as"/><path d="M210-169c-67 3-38 105-44 169h-31v-121c0-29-5-50-35-48C34-165 62-65 56 0H25l-1-190h30c1 10-1 24 2 32 10-44 99-50 107 0 11-21 27-35 58-36 85-2 47 119 55 194h-31v-121c0-29-5-49-35-48" id="at"/><path d="M185-189c-5-48-123-54-124 2 14 75 158 14 163 119 3 78-121 87-175 55-17-10-28-26-33-46l33-7c5 56 141 63 141-1 0-78-155-14-162-118-5-82 145-84 179-34 5 7 8 16 11 25" id="au"/><path d="M114-163C36-179 61-72 57 0H25l-1-190h30c1 12-1 29 2 39 6-27 23-49 58-41v29" id="av"/><path d="M87 75C49 33 22-17 22-94c0-76 28-126 65-167h31c-38 41-64 92-64 168S80 34 118 75H87" id="aw"/><path d="M115-194c55 1 70 41 70 98S169 2 115 4C84 4 66-9 55-30l1 105H24l-1-265h31l2 30c10-21 28-34 59-34zm-8 174c40 0 45-34 45-75s-6-73-45-74c-42 0-51 32-51 76 0 43 10 73 51 73" id="ax"/><path d="M100-194c63 0 86 42 84 106H49c0 40 14 67 53 68 26 1 43-12 49-29l28 8c-11 28-37 45-77 45C44 4 14-33 15-96c1-61 26-98 85-98zm52 81c6-60-76-77-97-28-3 7-6 17-6 28h103" id="ay"/><path d="M24 0v-261h32V0H24" id="az"/><g id="d"><use transform="matrix(0.044444444444444446,0,0,0.044444444444444446,0,0)" xlink:href="#ao"/><use transform="matrix(0.044444444444444446,0,0,0.044444444444444446,8,0)" xlink:href="#ap"/><use transform="matrix(0.044444444444444446,0,0,0.044444444444444446,16.88888888888889,0)" xlink:href="#aq"/><use transform="matrix(0.044444444444444446,0,0,0.044444444444444446,24.88888888888889,0)" xlink:href="#ar"/><use transform="matrix(0.044444444444444446,0,0,0.044444444444444446,29.333333333333336,0)" xlink:href="#as"/><use transform="matrix(0.044444444444444446,0,0,0.044444444444444446,38.22222222222223,0)" xlink:href="#at"/><use transform="matrix(0.044444444444444446,0,0,0.044444444444444446,51.51111111111112,0)" xlink:href="#au"/><use transform="matrix(0.044444444444444446,0,0,0.044444444444444446,62.17777777777779,0)" xlink:href="#as"/><use transform="matrix(0.044444444444444446,0,0,0.044444444444444446,71.06666666666668,0)" xlink:href="#av"/><use transform="matrix(0.044444444444444446,0,0,0.044444444444444446,76.35555555555557,0)" xlink:href="#ar"/><use transform="matrix(0.044444444444444446,0,0,0.044444444444444446,80.80000000000001,0)" xlink:href="#aw"/><use transform="matrix(0.044444444444444446,0,0,0.044444444444444446,86.0888888888889,0)" xlink:href="#ax"/><use transform="matrix(0.044444444444444446,0,0,0.044444444444444446,94.97777777777777,0)" xlink:href="#ay"/><use transform="matrix(0.044444444444444446,0,0,0.044444444444444446,103.86666666666667,0)" xlink:href="#as"/><use transform="matrix(0.044444444444444446,0,0,0.044444444444444446,112.75555555555556,0)" xlink:href="#ax"/><use transform="matrix(0.044444444444444446,0,0,0.044444444444444446,121.64444444444445,0)" xlink:href="#az"/><use transform="matrix(0.044444444444444446,0,0,0.044444444444444446,125.15555555555557,0)" xlink:href="#ay"/></g><path d="M33-154v-36h34v36H33zM33 0v-36h34V0H33" id="aA"/><use transform="matrix(0.044444444444444446,0,0,0.044444444444444446,0,0)" xlink:href="#aA" id="e"/><path d="M30 0v-248h33v221h125V0H30" id="aB"/><path d="M24-231v-30h32v30H24zM24 0v-190h32V0H24" id="aC"/><path d="M18-100v-36l175-74v27L42-118l151 64v27" id="aD"/><path d="M30-248c87 1 191-15 191 75 0 78-77 80-158 76V0H30v-248zm33 125c57 0 124 11 124-50 0-59-68-47-124-48v98" id="aE"/><path d="M117-194c89-4 53 116 60 194h-32v-121c0-31-8-49-39-48C34-167 62-67 57 0H25l-1-190h30c1 10-1 24 2 32 11-22 29-35 61-36" id="aF"/><path d="M18-27v-27l151-64-151-65v-27l175 74v36" id="aG"/><path d="M33-261c38 41 65 92 65 168S71 34 33 75H2C39 34 66-17 66-93S39-220 2-261h31" id="aH"/><g id="f"><use transform="matrix(0.044444444444444446,0,0,0.044444444444444446,0,0)" xlink:href="#aB"/><use transform="matrix(0.044444444444444446,0,0,0.044444444444444446,8.88888888888889,0)" xlink:href="#aC"/><use transform="matrix(0.044444444444444446,0,0,0.044444444444444446,12.4,0)" xlink:href="#aq"/><use transform="matrix(0.044444444444444446,0,0,0.044444444444444446,20.4,0)" xlink:href="#ar"/><use transform="matrix(0.044444444444444446,0,0,0.044444444444444446,24.84444444444444,0)" xlink:href="#aD"/><use transform="matrix(0.044444444444444446,0,0,0.044444444444444446,34.17777777777778,0)" xlink:href="#aE"/><use transform="matrix(0.044444444444444446,0,0,0.044444444444444446,44.84444444444445,0)" xlink:href="#ay"/><use transform="matrix(0.044444444444444446,0,0,0.044444444444444446,53.733333333333334,0)" xlink:href="#av"/><use transform="matrix(0.044444444444444446,0,0,0.044444444444444446,59.022222222222226,0)" xlink:href="#aq"/><use transform="matrix(0.044444444444444446,0,0,0.044444444444444446,67.02222222222223,0)" xlink:href="#as"/><use transform="matrix(0.044444444444444446,0,0,0.044444444444444446,75.91111111111111,0)" xlink:href="#aF"/><use transform="matrix(0.044444444444444446,0,0,0.044444444444444446,84.8,0)" xlink:href="#aG"/><use transform="matrix(0.044444444444444446,0,0,0.044444444444444446,94.13333333333331,0)" xlink:href="#aH"/></g><path d="M108 0H70L1-190h34L89-25l56-165h34" id="aI"/><path d="M85-194c31 0 48 13 60 33l-1-100h32l1 261h-30c-2-10 0-23-3-31C134-8 116 4 85 4 32 4 16-35 15-94c0-66 23-100 70-100zm9 24c-40 0-46 34-46 75 0 40 6 74 45 74 42 0 51-32 51-76 0-42-9-74-50-73" id="aJ"/><g id="g"><use transform="matrix(0.044444444444444446,0,0,0.044444444444444446,0,0)" xlink:href="#aI"/><use transform="matrix(0.044444444444444446,0,0,0.044444444444444446,8,0)" xlink:href="#as"/><use transform="matrix(0.044444444444444446,0,0,0.044444444444444446,16.88888888888889,0)" xlink:href="#aC"/><use transform="matrix(0.044444444444444446,0,0,0.044444444444444446,20.4,0)" xlink:href="#aJ"/></g><path fill="#333" d="M24-248c93 1 206-16 204 79-1 75-69 88-152 82V0H24v-248zm52 121c47 0 100 7 100-41 0-47-54-39-100-39v80" id="aK"/><path fill="#333" d="M185-48c-13 30-37 53-82 52C43 2 14-33 14-96s30-98 90-98c62 0 83 45 84 108H66c0 31 8 55 39 56 18 0 30-7 34-22zm-45-69c5-46-57-63-70-21-2 6-4 13-4 21h74" id="aL"/><path fill="#333" d="M135-150c-39-12-60 13-60 57V0H25l-1-190h47c2 13-1 29 3 40 6-28 27-53 61-41v41" id="aM"/><path fill="#333" d="M137-138c1-29-70-34-71-4 15 46 118 7 119 86 1 83-164 76-172 9l43-7c4 19 20 25 44 25 33 8 57-30 24-41C81-84 22-81 20-136c-2-80 154-74 161-7" id="aN"/><path fill="#333" d="M110-194c64 0 96 36 96 99 0 64-35 99-97 99-61 0-95-36-95-99 0-62 34-99 96-99zm-1 164c35 0 45-28 45-65 0-40-10-65-43-65-34 0-45 26-45 65 0 36 10 65 43 65" id="aO"/><path fill="#333" d="M135-194c87-1 58 113 63 194h-50c-7-57 23-157-34-157-59 0-34 97-39 157H25l-1-190h47c2 12-1 28 3 38 12-26 28-41 61-42" id="aP"/><g id="h"><use transform="matrix(0.044444444444444446,0,0,0.044444444444444446,0,0)" xlink:href="#aK"/><use transform="matrix(0.044444444444444446,0,0,0.044444444444444446,10.666666666666668,0)" xlink:href="#aL"/><use transform="matrix(0.044444444444444446,0,0,0.044444444444444446,19.555555555555557,0)" xlink:href="#aM"/><use transform="matrix(0.044444444444444446,0,0,0.044444444444444446,25.77777777777778,0)" xlink:href="#aN"/><use transform="matrix(0.044444444444444446,0,0,0.044444444444444446,34.66666666666667,0)" xlink:href="#aO"/><use transform="matrix(0.044444444444444446,0,0,0.044444444444444446,44.400000000000006,0)" xlink:href="#aP"/></g><path d="M16-82v-28h88v28H16" id="aQ"/><use transform="matrix(0.05925925925925927,0,0,0.05925925925925927,0,0)" xlink:href="#aQ" id="i"/><path d="M141-36C126-15 110 5 73 4 37 3 15-17 15-53c-1-64 63-63 125-63 3-35-9-54-41-54-24 1-41 7-42 31l-33-3c5-37 33-52 76-52 45 0 72 20 72 64v82c-1 20 7 32 28 27v20c-31 9-61-2-59-35zM48-53c0 20 12 33 32 33 41-3 63-29 60-74-43 2-92-5-92 41" id="aR"/><g id="j"><use transform="matrix(0.05925925925925927,0,0,0.05925925925925927,0,0)" xlink:href="#aF"/><use transform="matrix(0.05925925925925927,0,0,0.05925925925925927,11.851851851851853,0)" xlink:href="#aR"/><use transform="matrix(0.05925925925925927,0,0,0.05925925925925927,23.703703703703706,0)" xlink:href="#at"/><use transform="matrix(0.05925925925925927,0,0,0.05925925925925927,41.42222222222223,0)" xlink:href="#ay"/></g><use transform="matrix(0.05925925925925927,0,0,0.05925925925925927,0,0)" xlink:href="#aA" id="k"/><path d="M177-190C167-65 218 103 67 71c-23-6-38-20-44-43l32-5c15 47 100 32 89-28v-30C133-14 115 1 83 1 29 1 15-40 15-95c0-56 16-97 71-98 29-1 48 16 59 35 1-10 0-23 2-32h30zM94-22c36 0 50-32 50-73 0-42-14-75-50-75-39 0-46 34-46 75s6 73 46 73" id="aS"/><g id="l"><use transform="matrix(0.05925925925925927,0,0,0.05925925925925927,0,0)" xlink:href="#au"/><use transform="matrix(0.05925925925925927,0,0,0.05925925925925927,14.222222222222225,0)" xlink:href="#ar"/><use transform="matrix(0.05925925925925927,0,0,0.05925925925925927,20.148148148148152,0)" xlink:href="#av"/><use transform="matrix(0.05925925925925927,0,0,0.05925925925925927,27.200000000000006,0)" xlink:href="#aC"/><use transform="matrix(0.05925925925925927,0,0,0.05925925925925927,31.881481481481487,0)" xlink:href="#aF"/><use transform="matrix(0.05925925925925927,0,0,0.05925925925925927,43.73333333333334,0)" xlink:href="#aS"/></g><g id="m"><use transform="matrix(0.05925925925925927,0,0,0.05925925925925927,0,0)" xlink:href="#aR"/><use transform="matrix(0.05925925925925927,0,0,0.05925925925925927,11.851851851851853,0)" xlink:href="#aS"/><use transform="matrix(0.05925925925925927,0,0,0.05925925925925927,23.703703703703706,0)" xlink:href="#ay"/></g><path d="M33 0v-248h34V0H33" id="aT"/><g id="n"><use transform="matrix(0.05925925925925927,0,0,0.05925925925925927,0,0)" xlink:href="#aT"/><use transform="matrix(0.05925925925925927,0,0,0.05925925925925927,5.9259259259259265,0)" xlink:href="#aF"/><use transform="matrix(0.05925925925925927,0,0,0.05925925925925927,17.77777777777778,0)" xlink:href="#ar"/><use transform="matrix(0.05925925925925927,0,0,0.05925925925925927,23.703703703703706,0)" xlink:href="#ay"/><use transform="matrix(0.05925925925925927,0,0,0.05925925925925927,35.55555555555556,0)" xlink:href="#aS"/><use transform="matrix(0.05925925925925927,0,0,0.05925925925925927,47.40740740740741,0)" xlink:href="#ay"/><use transform="matrix(0.05925925925925927,0,0,0.05925925925925927,59.25925925925927,0)" xlink:href="#av"/></g><path d="M106-169C34-169 62-67 57 0H25v-261h32l-1 103c12-21 28-36 61-36 89 0 53 116 60 194h-32v-121c2-32-8-49-39-48" id="aU"/><g id="o"><use transform="matrix(0.05925925925925927,0,0,0.05925925925925927,0,0)" xlink:href="#aU"/><use transform="matrix(0.05925925925925927,0,0,0.05925925925925927,11.851851851851853,0)" xlink:href="#ay"/><use transform="matrix(0.05925925925925927,0,0,0.05925925925925927,23.703703703703706,0)" xlink:href="#aC"/><use transform="matrix(0.05925925925925927,0,0,0.05925925925925927,28.385185185185186,0)" xlink:href="#aS"/><use transform="matrix(0.05925925925925927,0,0,0.05925925925925927,40.23703703703704,0)" xlink:href="#aU"/><use transform="matrix(0.05925925925925927,0,0,0.05925925925925927,52.088888888888896,0)" xlink:href="#ar"/></g><path d="M206 0h-36l-40-164L89 0H53L-1-190h32L70-26l43-164h34l41 164 42-164h31" id="aV"/><g id="p"><use transform="matrix(0.05925925925925927,0,0,0.05925925925925927,0,0)" xlink:href="#aV"/><use transform="matrix(0.05925925925925927,0,0,0.05925925925925927,15.34814814814815,0)" xlink:href="#ay"/><use transform="matrix(0.05925925925925927,0,0,0.05925925925925927,27.200000000000003,0)" xlink:href="#aC"/><use transform="matrix(0.05925925925925927,0,0,0.05925925925925927,31.881481481481487,0)" xlink:href="#aS"/><use transform="matrix(0.05925925925925927,0,0,0.05925925925925927,43.73333333333334,0)" xlink:href="#aU"/><use transform="matrix(0.05925925925925927,0,0,0.05925925925925927,55.585185185185196,0)" xlink:href="#ar"/></g><g id="q"><use transform="matrix(0.05925925925925927,0,0,0.05925925925925927,0,0)" xlink:href="#aT"/><use transform="matrix(0.05925925925925927,0,0,0.05925925925925927,5.9259259259259265,0)" xlink:href="#aF"/><use transform="matrix(0.05925925925925927,0,0,0.05925925925925927,17.77777777777778,0)" xlink:href="#ar"/><use transform="matrix(0.05925925925925927,0,0,0.05925925925925927,23.703703703703706,0)" xlink:href="#ay"/><use transform="matrix(0.05925925925925927,0,0,0.05925925925925927,35.55555555555556,0)" xlink:href="#aS"/><use transform="matrix(0.05925925925925927,0,0,0.05925925925925927,47.40740740740741,0)" xlink:href="#ay"/><use transform="matrix(0.05925925925925927,0,0,0.05925925925925927,59.25925925925927,0)" xlink:href="#av"/></g><path d="M118-107v75H92v-75H18v-26h74v-75h26v75h74v26h-74" id="aW"/><use transform="matrix(0.05925925925925927,0,0,0.05925925925925927,0,0)" xlink:href="#aW" id="r"/><path d="M190 0L58-211 59 0H30v-248h39L202-35l-2-213h31V0h-41" id="aX"/><g id="s"><use transform="matrix(0.05925925925925927,0,0,0.05925925925925927,0,0)" xlink:href="#aS"/><use transform="matrix(0.05925925925925927,0,0,0.05925925925925927,11.851851851851853,0)" xlink:href="#ay"/><use transform="matrix(0.05925925925925927,0,0,0.05925925925925927,23.703703703703706,0)" xlink:href="#ar"/><use transform="matrix(0.05925925925925927,0,0,0.05925925925925927,29.629629629629633,0)" xlink:href="#aX"/><use transform="matrix(0.05925925925925927,0,0,0.05925925925925927,44.97777777777778,0)" xlink:href="#aR"/><use transform="matrix(0.05925925925925927,0,0,0.05925925925925927,56.829629629629636,0)" xlink:href="#at"/><use transform="matrix(0.05925925925925927,0,0,0.05925925925925927,74.54814814814816,0)" xlink:href="#ay"/><use transform="matrix(0.05925925925925927,0,0,0.05925925925925927,86.4,0)" xlink:href="#aw"/><use transform="matrix(0.05925925925925927,0,0,0.05925925925925927,93.45185185185186,0)" xlink:href="#aH"/></g><g id="t"><use transform="matrix(0.05925925925925927,0,0,0.05925925925925927,0,0)" xlink:href="#aq"/><use transform="matrix(0.05925925925925927,0,0,0.05925925925925927,10.666666666666668,0)" xlink:href="#ay"/><use transform="matrix(0.05925925925925927,0,0,0.05925925925925927,22.51851851851852,0)" xlink:href="#ar"/><use transform="matrix(0.05925925925925927,0,0,0.05925925925925927,28.444444444444446,0)" xlink:href="#aX"/><use transform="matrix(0.05925925925925927,0,0,0.05925925925925927,43.7925925925926,0)" xlink:href="#aR"/><use transform="matrix(0.05925925925925927,0,0,0.05925925925925927,55.64444444444445,0)" xlink:href="#at"/><use transform="matrix(0.05925925925925927,0,0,0.05925925925925927,73.36296296296297,0)" xlink:href="#ay"/><use transform="matrix(0.05925925925925927,0,0,0.05925925925925927,85.21481481481482,0)" xlink:href="#aw"/><use transform="matrix(0.05925925925925927,0,0,0.05925925925925927,92.26666666666667,0)" xlink:href="#aF"/><use transform="matrix(0.05925925925925927,0,0,0.05925925925925927,104.11851851851851,0)" xlink:href="#aR"/><use transform="matrix(0.05925925925925927,0,0,0.05925925925925927,115.97037037037036,0)" xlink:href="#at"/><use transform="matrix(0.05925925925925927,0,0,0.05925925925925927,133.68888888888887,0)" xlink:href="#ay"/></g><g id="u"><use transform="matrix(0.05925925925925927,0,0,0.05925925925925927,0,0)" xlink:href="#au"/><use transform="matrix(0.05925925925925927,0,0,0.05925925925925927,14.222222222222225,0)" xlink:href="#ar"/><use transform="matrix(0.05925925925925927,0,0,0.05925925925925927,20.148148148148152,0)" xlink:href="#av"/><use transform="matrix(0.05925925925925927,0,0,0.05925925925925927,27.200000000000006,0)" xlink:href="#aC"/><use transform="matrix(0.05925925925925927,0,0,0.05925925925925927,31.881481481481487,0)" xlink:href="#aF"/><use transform="matrix(0.05925925925925927,0,0,0.05925925925925927,43.73333333333334,0)" xlink:href="#aS"/><use transform="matrix(0.05925925925925927,0,0,0.05925925925925927,55.585185185185196,0)" xlink:href="#aH"/></g><g id="v"><use transform="matrix(0.05925925925925927,0,0,0.05925925925925927,0,0)" xlink:href="#aI"/><use transform="matrix(0.05925925925925927,0,0,0.05925925925925927,10.666666666666668,0)" xlink:href="#as"/><use transform="matrix(0.05925925925925927,0,0,0.05925925925925927,22.51851851851852,0)" xlink:href="#aC"/><use transform="matrix(0.05925925925925927,0,0,0.05925925925925927,27.200000000000003,0)" xlink:href="#aJ"/></g><path d="M205 0l-28-72H64L36 0H1l101-248h38L239 0h-34zm-38-99l-47-123c-12 45-31 82-46 123h93" id="aY"/><g id="w"><use transform="matrix(0.05925925925925927,0,0,0.05925925925925927,0,0)" xlink:href="#aS"/><use transform="matrix(0.05925925925925927,0,0,0.05925925925925927,11.851851851851853,0)" xlink:href="#ay"/><use transform="matrix(0.05925925925925927,0,0,0.05925925925925927,23.703703703703706,0)" xlink:href="#ar"/><use transform="matrix(0.05925925925925927,0,0,0.05925925925925927,29.629629629629633,0)" xlink:href="#aY"/><use transform="matrix(0.05925925925925927,0,0,0.05925925925925927,43.85185185185186,0)" xlink:href="#aS"/><use transform="matrix(0.05925925925925927,0,0,0.05925925925925927,55.70370370370372,0)" xlink:href="#ay"/><use transform="matrix(0.05925925925925927,0,0,0.05925925925925927,67.55555555555557,0)" xlink:href="#aw"/><use transform="matrix(0.05925925925925927,0,0,0.05925925925925927,74.60740740740742,0)" xlink:href="#aH"/></g><g id="x"><use transform="matrix(0.05925925925925927,0,0,0.05925925925925927,0,0)" xlink:href="#aq"/><use transform="matrix(0.05925925925925927,0,0,0.05925925925925927,10.666666666666668,0)" xlink:href="#ay"/><use transform="matrix(0.05925925925925927,0,0,0.05925925925925927,22.51851851851852,0)" xlink:href="#ar"/><use transform="matrix(0.05925925925925927,0,0,0.05925925925925927,28.444444444444446,0)" xlink:href="#aY"/><use transform="matrix(0.05925925925925927,0,0,0.05925925925925927,42.66666666666667,0)" xlink:href="#aS"/><use transform="matrix(0.05925925925925927,0,0,0.05925925925925927,54.518518518518526,0)" xlink:href="#ay"/><use transform="matrix(0.05925925925925927,0,0,0.05925925925925927,66.37037037037038,0)" xlink:href="#aw"/><use transform="matrix(0.05925925925925927,0,0,0.05925925925925927,73.42222222222223,0)" xlink:href="#aR"/><use transform="matrix(0.05925925925925927,0,0,0.05925925925925927,85.27407407407408,0)" xlink:href="#aS"/><use transform="matrix(0.05925925925925927,0,0,0.05925925925925927,97.12592592592593,0)" xlink:href="#ay"/></g><g id="y"><use transform="matrix(0.05925925925925927,0,0,0.05925925925925927,0,0)" xlink:href="#aT"/><use transform="matrix(0.05925925925925927,0,0,0.05925925925925927,5.9259259259259265,0)" xlink:href="#aF"/><use transform="matrix(0.05925925925925927,0,0,0.05925925925925927,17.77777777777778,0)" xlink:href="#ar"/><use transform="matrix(0.05925925925925927,0,0,0.05925925925925927,23.703703703703706,0)" xlink:href="#ay"/><use transform="matrix(0.05925925925925927,0,0,0.05925925925925927,35.55555555555556,0)" xlink:href="#aS"/><use transform="matrix(0.05925925925925927,0,0,0.05925925925925927,47.40740740740741,0)" xlink:href="#ay"/><use transform="matrix(0.05925925925925927,0,0,0.05925925925925927,59.25925925925927,0)" xlink:href="#av"/><use transform="matrix(0.05925925925925927,0,0,0.05925925925925927,66.31111111111112,0)" xlink:href="#aH"/></g><path d="M197 0v-115H63V0H30v-248h33v105h134v-105h34V0h-34" id="aZ"/><g id="z"><use transform="matrix(0.05925925925925927,0,0,0.05925925925925927,0,0)" xlink:href="#aS"/><use transform="matrix(0.05925925925925927,0,0,0.05925925925925927,11.851851851851853,0)" xlink:href="#ay"/><use transform="matrix(0.05925925925925927,0,0,0.05925925925925927,23.703703703703706,0)" xlink:href="#ar"/><use transform="matrix(0.05925925925925927,0,0,0.05925925925925927,29.629629629629633,0)" xlink:href="#aZ"/><use transform="matrix(0.05925925925925927,0,0,0.05925925925925927,44.97777777777778,0)" xlink:href="#ay"/><use transform="matrix(0.05925925925925927,0,0,0.05925925925925927,56.829629629629636,0)" xlink:href="#aC"/><use transform="matrix(0.05925925925925927,0,0,0.05925925925925927,61.51111111111112,0)" xlink:href="#aS"/><use transform="matrix(0.05925925925925927,0,0,0.05925925925925927,73.36296296296297,0)" xlink:href="#aU"/><use transform="matrix(0.05925925925925927,0,0,0.05925925925925927,85.21481481481482,0)" xlink:href="#ar"/><use transform="matrix(0.05925925925925927,0,0,0.05925925925925927,91.14074074074074,0)" xlink:href="#aw"/><use transform="matrix(0.05925925925925927,0,0,0.05925925925925927,98.19259259259259,0)" xlink:href="#aH"/></g><g id="A"><use transform="matrix(0.05925925925925927,0,0,0.05925925925925927,0,0)" xlink:href="#aq"/><use transform="matrix(0.05925925925925927,0,0,0.05925925925925927,10.666666666666668,0)" xlink:href="#ay"/><use transform="matrix(0.05925925925925927,0,0,0.05925925925925927,22.51851851851852,0)" xlink:href="#ar"/><use transform="matrix(0.05925925925925927,0,0,0.05925925925925927,28.444444444444446,0)" xlink:href="#aZ"/><use transform="matrix(0.05925925925925927,0,0,0.05925925925925927,43.7925925925926,0)" xlink:href="#ay"/><use transform="matrix(0.05925925925925927,0,0,0.05925925925925927,55.64444444444445,0)" xlink:href="#aC"/><use transform="matrix(0.05925925925925927,0,0,0.05925925925925927,60.32592592592594,0)" xlink:href="#aS"/><use transform="matrix(0.05925925925925927,0,0,0.05925925925925927,72.17777777777779,0)" xlink:href="#aU"/><use transform="matrix(0.05925925925925927,0,0,0.05925925925925927,84.02962962962964,0)" xlink:href="#ar"/><use transform="matrix(0.05925925925925927,0,0,0.05925925925925927,89.95555555555556,0)" xlink:href="#aw"/><use transform="matrix(0.05925925925925927,0,0,0.05925925925925927,97.00740740740741,0)" xlink:href="#aU"/><use transform="matrix(0.05925925925925927,0,0,0.05925925925925927,108.85925925925926,0)" xlink:href="#ay"/><use transform="matrix(0.05925925925925927,0,0,0.05925925925925927,120.71111111111111,0)" xlink:href="#aC"/><use transform="matrix(0.05925925925925927,0,0,0.05925925925925927,125.39259259259258,0)" xlink:href="#aS"/><use transform="matrix(0.05925925925925927,0,0,0.05925925925925927,137.24444444444444,0)" xlink:href="#aU"/><use transform="matrix(0.05925925925925927,0,0,0.05925925925925927,149.0962962962963,0)" xlink:href="#ar"/></g><path d="M266 0h-40l-56-210L115 0H75L2-248h35L96-30l15-64 43-154h32l59 218 59-218h35" id="ba"/><g id="B"><use transform="matrix(0.05925925925925927,0,0,0.05925925925925927,0,0)" xlink:href="#aS"/><use transform="matrix(0.05925925925925927,0,0,0.05925925925925927,11.851851851851853,0)" xlink:href="#ay"/><use transform="matrix(0.05925925925925927,0,0,0.05925925925925927,23.703703703703706,0)" xlink:href="#ar"/><use transform="matrix(0.05925925925925927,0,0,0.05925925925925927,29.629629629629633,0)" xlink:href="#ba"/><use transform="matrix(0.05925925925925927,0,0,0.05925925925925927,49.30370370370371,0)" xlink:href="#ay"/><use transform="matrix(0.05925925925925927,0,0,0.05925925925925927,61.155555555555566,0)" xlink:href="#aC"/><use transform="matrix(0.05925925925925927,0,0,0.05925925925925927,65.83703703703705,0)" xlink:href="#aS"/><use transform="matrix(0.05925925925925927,0,0,0.05925925925925927,77.6888888888889,0)" xlink:href="#aU"/><use transform="matrix(0.05925925925925927,0,0,0.05925925925925927,89.54074074074074,0)" xlink:href="#ar"/><use transform="matrix(0.05925925925925927,0,0,0.05925925925925927,95.46666666666667,0)" xlink:href="#aw"/><use transform="matrix(0.05925925925925927,0,0,0.05925925925925927,102.51851851851852,0)" xlink:href="#aH"/></g><g id="C"><use transform="matrix(0.05925925925925927,0,0,0.05925925925925927,0,0)" xlink:href="#aq"/><use transform="matrix(0.05925925925925927,0,0,0.05925925925925927,10.666666666666668,0)" xlink:href="#ay"/><use transform="matrix(0.05925925925925927,0,0,0.05925925925925927,22.51851851851852,0)" xlink:href="#ar"/><use transform="matrix(0.05925925925925927,0,0,0.05925925925925927,28.444444444444446,0)" xlink:href="#ba"/><use transform="matrix(0.05925925925925927,0,0,0.05925925925925927,48.11851851851853,0)" xlink:href="#ay"/><use transform="matrix(0.05925925925925927,0,0,0.05925925925925927,59.97037037037038,0)" xlink:href="#aC"/><use transform="matrix(0.05925925925925927,0,0,0.05925925925925927,64.65185185185186,0)" xlink:href="#aS"/><use transform="matrix(0.05925925925925927,0,0,0.05925925925925927,76.5037037037037,0)" xlink:href="#aU"/><use transform="matrix(0.05925925925925927,0,0,0.05925925925925927,88.35555555555555,0)" xlink:href="#ar"/><use transform="matrix(0.05925925925925927,0,0,0.05925925925925927,94.28148148148148,0)" xlink:href="#aw"/><use transform="matrix(0.05925925925925927,0,0,0.05925925925925927,101.33333333333333,0)" xlink:href="#aV"/><use transform="matrix(0.05925925925925927,0,0,0.05925925925925927,116.68148148148148,0)" xlink:href="#ay"/><use transform="matrix(0.05925925925925927,0,0,0.05925925925925927,128.53333333333333,0)" xlink:href="#aC"/><use transform="matrix(0.05925925925925927,0,0,0.05925925925925927,133.21481481481482,0)" xlink:href="#aS"/><use transform="matrix(0.05925925925925927,0,0,0.05925925925925927,145.06666666666666,0)" xlink:href="#aU"/><use transform="matrix(0.05925925925925927,0,0,0.05925925925925927,156.9185185185185,0)" xlink:href="#ar"/></g><g id="D"><use transform="matrix(0.05925925925925927,0,0,0.05925925925925927,0,0)" xlink:href="#aI"/><use transform="matrix(0.05925925925925927,0,0,0.05925925925925927,10.666666666666668,0)" xlink:href="#as"/><use transform="matrix(0.05925925925925927,0,0,0.05925925925925927,22.51851851851852,0)" xlink:href="#aC"/><use transform="matrix(0.05925925925925927,0,0,0.05925925925925927,27.200000000000003,0)" xlink:href="#aJ"/></g><path fill="#333" d="M67-125c0 53 21 87 73 88 37 1 54-22 65-47l45 17C233-25 199 4 140 4 58 4 20-42 15-125 8-235 124-281 211-232c18 10 29 29 36 50l-46 12c-8-25-30-41-62-41-52 0-71 34-72 86" id="bb"/><path fill="#333" d="M25 0v-261h50V0H25" id="bc"/><path fill="#333" d="M25-224v-37h50v37H25zM25 0v-190h50V0H25" id="bd"/><path fill="#333" d="M115-3C79 11 28 4 28-45v-112H4v-33h27l15-45h31v45h36v33H77v99c-1 23 16 31 38 25v30" id="be"/><g id="E"><use transform="matrix(0.044444444444444446,0,0,0.044444444444444446,0,0)" xlink:href="#bb"/><use transform="matrix(0.044444444444444446,0,0,0.044444444444444446,11.511111111111111,0)" xlink:href="#bc"/><use transform="matrix(0.044444444444444446,0,0,0.044444444444444446,15.955555555555556,0)" xlink:href="#bd"/><use transform="matrix(0.044444444444444446,0,0,0.044444444444444446,20.4,0)" xlink:href="#aL"/><use transform="matrix(0.044444444444444446,0,0,0.044444444444444446,29.28888888888889,0)" xlink:href="#aP"/><use transform="matrix(0.044444444444444446,0,0,0.044444444444444446,39.022222222222226,0)" xlink:href="#be"/></g><path fill="#333" d="M135-194c53 0 70 44 70 98 0 56-19 98-73 100-31 1-45-17-59-34 3 33 2 69 2 105H25l-1-265h48c2 10 0 23 3 31 11-24 29-35 60-35zM114-30c33 0 39-31 40-66 0-38-9-64-40-64-56 0-55 130 0 130" id="bf"/><g id="F"><use transform="matrix(0.044444444444444446,0,0,0.044444444444444446,0,0)" xlink:href="#aK"/><use transform="matrix(0.044444444444444446,0,0,0.044444444444444446,10.666666666666668,0)" xlink:href="#aL"/><use transform="matrix(0.044444444444444446,0,0,0.044444444444444446,19.555555555555557,0)" xlink:href="#aO"/><use transform="matrix(0.044444444444444446,0,0,0.044444444444444446,29.28888888888889,0)" xlink:href="#bf"/><use transform="matrix(0.044444444444444446,0,0,0.044444444444444446,39.022222222222226,0)" xlink:href="#bc"/><use transform="matrix(0.044444444444444446,0,0,0.044444444444444446,43.46666666666667,0)" xlink:href="#aL"/></g><path d="M115-194c53 0 69 39 70 98 0 66-23 100-70 100C84 3 66-7 56-30L54 0H23l1-261h32v101c10-23 28-34 59-34zm-8 174c40 0 45-34 45-75 0-40-5-75-45-74-42 0-51 32-51 76 0 43 10 73 51 73" id="bg"/><g id="G"><use transform="matrix(0.05925925925925927,0,0,0.05925925925925927,0,0)" xlink:href="#at"/><use transform="matrix(0.05925925925925927,0,0,0.05925925925925927,17.718518518518522,0)" xlink:href="#ay"/><use transform="matrix(0.05925925925925927,0,0,0.05925925925925927,29.570370370370377,0)" xlink:href="#at"/><use transform="matrix(0.05925925925925927,0,0,0.05925925925925927,47.2888888888889,0)" xlink:href="#bg"/><use transform="matrix(0.05925925925925927,0,0,0.05925925925925927,59.14074074074075,0)" xlink:href="#ay"/><use transform="matrix(0.05925925925925927,0,0,0.05925925925925927,70.9925925925926,0)" xlink:href="#av"/><use transform="matrix(0.05925925925925927,0,0,0.05925925925925927,78.04444444444445,0)" xlink:href="#aq"/></g><g id="H"><use transform="matrix(0.05925925925925927,0,0,0.05925925925925927,0,0)" xlink:href="#aB"/><use transform="matrix(0.05925925925925927,0,0,0.05925925925925927,11.851851851851853,0)" xlink:href="#aC"/><use transform="matrix(0.05925925925925927,0,0,0.05925925925925927,16.533333333333335,0)" xlink:href="#aq"/><use transform="matrix(0.05925925925925927,0,0,0.05925925925925927,27.200000000000003,0)" xlink:href="#ar"/><use transform="matrix(0.05925925925925927,0,0,0.05925925925925927,33.12592592592593,0)" xlink:href="#aD"/><use transform="matrix(0.05925925925925927,0,0,0.05925925925925927,45.57037037037037,0)" xlink:href="#aE"/><use transform="matrix(0.05925925925925927,0,0,0.05925925925925927,59.7925925925926,0)" xlink:href="#ay"/><use transform="matrix(0.05925925925925927,0,0,0.05925925925925927,71.64444444444445,0)" xlink:href="#av"/><use transform="matrix(0.05925925925925927,0,0,0.05925925925925927,78.6962962962963,0)" xlink:href="#aq"/><use transform="matrix(0.05925925925925927,0,0,0.05925925925925927,89.36296296296297,0)" xlink:href="#as"/><use transform="matrix(0.05925925925925927,0,0,0.05925925925925927,101.21481481481482,0)" xlink:href="#aF"/><use transform="matrix(0.05925925925925927,0,0,0.05925925925925927,113.06666666666666,0)" xlink:href="#aG"/><use transform="matrix(0.05925925925925927,0,0,0.05925925925925927,125.5111111111111,0)" xlink:href="#aQ"/></g><path d="M179-190L93 31C79 59 56 82 12 73V49c39 6 53-20 64-50L1-190h34L92-34l54-156h33" id="bh"/><g id="I"><use transform="matrix(0.05925925925925927,0,0,0.05925925925925927,0,0)" xlink:href="#aq"/><use transform="matrix(0.05925925925925927,0,0,0.05925925925925927,10.666666666666668,0)" xlink:href="#as"/><use transform="matrix(0.05925925925925927,0,0,0.05925925925925927,22.51851851851852,0)" xlink:href="#av"/><use transform="matrix(0.05925925925925927,0,0,0.05925925925925927,29.570370370370373,0)" xlink:href="#ar"/><use transform="matrix(0.05925925925925927,0,0,0.05925925925925927,35.4962962962963,0)" xlink:href="#au"/><use transform="matrix(0.05925925925925927,0,0,0.05925925925925927,49.71851851851852,0)" xlink:href="#ar"/><use transform="matrix(0.05925925925925927,0,0,0.05925925925925927,55.644444444444446,0)" xlink:href="#av"/><use transform="matrix(0.05925925925925927,0,0,0.05925925925925927,62.69629629629629,0)" xlink:href="#aR"/><use transform="matrix(0.05925925925925927,0,0,0.05925925925925927,74.54814814814814,0)" xlink:href="#ar"/><use transform="matrix(0.05925925925925927,0,0,0.05925925925925927,80.47407407407407,0)" xlink:href="#ay"/><use transform="matrix(0.05925925925925927,0,0,0.05925925925925927,92.32592592592592,0)" xlink:href="#aS"/><use transform="matrix(0.05925925925925927,0,0,0.05925925925925927,104.17777777777776,0)" xlink:href="#bh"/></g><g id="J"><use transform="matrix(0.05925925925925927,0,0,0.05925925925925927,0,0)" xlink:href="#au"/><use transform="matrix(0.05925925925925927,0,0,0.05925925925925927,14.222222222222225,0)" xlink:href="#as"/><use transform="matrix(0.05925925925925927,0,0,0.05925925925925927,26.074074074074076,0)" xlink:href="#av"/><use transform="matrix(0.05925925925925927,0,0,0.05925925925925927,33.12592592592593,0)" xlink:href="#ar"/><use transform="matrix(0.05925925925925927,0,0,0.05925925925925927,39.05185185185185,0)" xlink:href="#au"/><use transform="matrix(0.05925925925925927,0,0,0.05925925925925927,53.27407407407408,0)" xlink:href="#ar"/><use transform="matrix(0.05925925925925927,0,0,0.05925925925925927,59.2,0)" xlink:href="#av"/><use transform="matrix(0.05925925925925927,0,0,0.05925925925925927,66.25185185185185,0)" xlink:href="#aR"/><use transform="matrix(0.05925925925925927,0,0,0.05925925925925927,78.1037037037037,0)" xlink:href="#ar"/><use transform="matrix(0.05925925925925927,0,0,0.05925925925925927,84.02962962962962,0)" xlink:href="#ay"/><use transform="matrix(0.05925925925925927,0,0,0.05925925925925927,95.88148148148147,0)" xlink:href="#aS"/><use transform="matrix(0.05925925925925927,0,0,0.05925925925925927,107.73333333333332,0)" xlink:href="#bh"/></g><g id="K"><use transform="matrix(0.05925925925925927,0,0,0.05925925925925927,0,0)" xlink:href="#aE"/><use transform="matrix(0.05925925925925927,0,0,0.05925925925925927,14.222222222222225,0)" xlink:href="#ay"/><use transform="matrix(0.05925925925925927,0,0,0.05925925925925927,26.074074074074076,0)" xlink:href="#as"/><use transform="matrix(0.05925925925925927,0,0,0.05925925925925927,37.92592592592593,0)" xlink:href="#ax"/><use transform="matrix(0.05925925925925927,0,0,0.05925925925925927,49.777777777777786,0)" xlink:href="#az"/><use transform="matrix(0.05925925925925927,0,0,0.05925925925925927,54.45925925925927,0)" xlink:href="#ay"/><use transform="matrix(0.05925925925925927,0,0,0.05925925925925927,66.31111111111112,0)" xlink:href="#aw"/><use transform="matrix(0.05925925925925927,0,0,0.05925925925925927,73.36296296296297,0)" xlink:href="#aH"/></g><g id="L"><use transform="matrix(0.05925925925925927,0,0,0.05925925925925927,0,0)" xlink:href="#aq"/><use transform="matrix(0.05925925925925927,0,0,0.05925925925925927,10.666666666666668,0)" xlink:href="#ay"/><use transform="matrix(0.05925925925925927,0,0,0.05925925925925927,22.51851851851852,0)" xlink:href="#ar"/><use transform="matrix(0.05925925925925927,0,0,0.05925925925925927,28.444444444444446,0)" xlink:href="#au"/><use transform="matrix(0.05925925925925927,0,0,0.05925925925925927,42.66666666666667,0)" xlink:href="#as"/><use transform="matrix(0.05925925925925927,0,0,0.05925925925925927,54.518518518518526,0)" xlink:href="#av"/><use transform="matrix(0.05925925925925927,0,0,0.05925925925925927,61.57037037037038,0)" xlink:href="#ar"/><use transform="matrix(0.05925925925925927,0,0,0.05925925925925927,67.49629629629631,0)" xlink:href="#au"/><use transform="matrix(0.05925925925925927,0,0,0.05925925925925927,81.71851851851854,0)" xlink:href="#ar"/><use transform="matrix(0.05925925925925927,0,0,0.05925925925925927,87.64444444444446,0)" xlink:href="#av"/><use transform="matrix(0.05925925925925927,0,0,0.05925925925925927,94.69629629629631,0)" xlink:href="#aR"/><use transform="matrix(0.05925925925925927,0,0,0.05925925925925927,106.54814814814816,0)" xlink:href="#ar"/><use transform="matrix(0.05925925925925927,0,0,0.05925925925925927,112.47407407407408,0)" xlink:href="#ay"/><use transform="matrix(0.05925925925925927,0,0,0.05925925925925927,124.32592592592592,0)" xlink:href="#aS"/><use transform="matrix(0.05925925925925927,0,0,0.05925925925925927,136.17777777777778,0)" xlink:href="#bh"/><use transform="matrix(0.05925925925925927,0,0,0.05925925925925927,146.84444444444443,0)" xlink:href="#aw"/><use transform="matrix(0.05925925925925927,0,0,0.05925925925925927,153.8962962962963,0)" xlink:href="#aq"/><use transform="matrix(0.05925925925925927,0,0,0.05925925925925927,164.56296296296296,0)" xlink:href="#as"/><use transform="matrix(0.05925925925925927,0,0,0.05925925925925927,176.4148148148148,0)" xlink:href="#av"/><use transform="matrix(0.05925925925925927,0,0,0.05925925925925927,183.46666666666667,0)" xlink:href="#ar"/><use transform="matrix(0.05925925925925927,0,0,0.05925925925925927,189.3925925925926,0)" xlink:href="#au"/><use transform="matrix(0.05925925925925927,0,0,0.05925925925925927,203.61481481481482,0)" xlink:href="#ar"/><use transform="matrix(0.05925925925925927,0,0,0.05925925925925927,209.54074074074074,0)" xlink:href="#av"/><use transform="matrix(0.05925925925925927,0,0,0.05925925925925927,216.5925925925926,0)" xlink:href="#aR"/><use transform="matrix(0.05925925925925927,0,0,0.05925925925925927,228.44444444444446,0)" xlink:href="#ar"/><use transform="matrix(0.05925925925925927,0,0,0.05925925925925927,234.37037037037038,0)" xlink:href="#ay"/><use transform="matrix(0.05925925925925927,0,0,0.05925925925925927,246.2222222222222,0)" xlink:href="#aS"/><use transform="matrix(0.05925925925925927,0,0,0.05925925925925927,258.0740740740741,0)" xlink:href="#bh"/></g><use transform="matrix(0.05925925925925927,0,0,0.05925925925925927,0,0)" xlink:href="#aA" id="M"/><g id="N"><use transform="matrix(0.05925925925925927,0,0,0.05925925925925927,0,0)" xlink:href="#au"/><use transform="matrix(0.05925925925925927,0,0,0.05925925925925927,14.222222222222225,0)" xlink:href="#as"/><use transform="matrix(0.05925925925925927,0,0,0.05925925925925927,26.074074074074076,0)" xlink:href="#av"/><use transform="matrix(0.05925925925925927,0,0,0.05925925925925927,33.12592592592593,0)" xlink:href="#ar"/><use transform="matrix(0.05925925925925927,0,0,0.05925925925925927,39.05185185185185,0)" xlink:href="#au"/><use transform="matrix(0.05925925925925927,0,0,0.05925925925925927,53.27407407407408,0)" xlink:href="#ar"/><use transform="matrix(0.05925925925925927,0,0,0.05925925925925927,59.2,0)" xlink:href="#av"/><use transform="matrix(0.05925925925925927,0,0,0.05925925925925927,66.25185185185185,0)" xlink:href="#aR"/><use transform="matrix(0.05925925925925927,0,0,0.05925925925925927,78.1037037037037,0)" xlink:href="#ar"/><use transform="matrix(0.05925925925925927,0,0,0.05925925925925927,84.02962962962962,0)" xlink:href="#ay"/><use transform="matrix(0.05925925925925927,0,0,0.05925925925925927,95.88148148148147,0)" xlink:href="#aS"/><use transform="matrix(0.05925925925925927,0,0,0.05925925925925927,107.73333333333332,0)" xlink:href="#bh"/><use transform="matrix(0.05925925925925927,0,0,0.05925925925925927,118.39999999999999,0)" xlink:href="#aH"/></g><path d="M240 0l2-218c-23 76-54 145-80 218h-23L58-218 59 0H30v-248h44l77 211c21-75 51-140 76-211h43V0h-30" id="bi"/><g id="O"><use transform="matrix(0.05925925925925927,0,0,0.05925925925925927,0,0)" xlink:href="#aR"/><use transform="matrix(0.05925925925925927,0,0,0.05925925925925927,11.851851851851853,0)" xlink:href="#aJ"/><use transform="matrix(0.05925925925925927,0,0,0.05925925925925927,23.703703703703706,0)" xlink:href="#aJ"/><use transform="matrix(0.05925925925925927,0,0,0.05925925925925927,35.55555555555556,0)" xlink:href="#bi"/><use transform="matrix(0.05925925925925927,0,0,0.05925925925925927,53.27407407407408,0)" xlink:href="#ay"/><use transform="matrix(0.05925925925925927,0,0,0.05925925925925927,65.12592592592593,0)" xlink:href="#at"/><use transform="matrix(0.05925925925925927,0,0,0.05925925925925927,82.84444444444445,0)" xlink:href="#bg"/><use transform="matrix(0.05925925925925927,0,0,0.05925925925925927,94.6962962962963,0)" xlink:href="#ay"/><use transform="matrix(0.05925925925925927,0,0,0.05925925925925927,106.54814814814814,0)" xlink:href="#av"/><use transform="matrix(0.05925925925925927,0,0,0.05925925925925927,113.6,0)" xlink:href="#aw"/><use transform="matrix(0.05925925925925927,0,0,0.05925925925925927,120.65185185185184,0)" xlink:href="#ax"/></g><g id="P"><use transform="matrix(0.05925925925925927,0,0,0.05925925925925927,0,0)" xlink:href="#aE"/><use transform="matrix(0.05925925925925927,0,0,0.05925925925925927,14.222222222222225,0)" xlink:href="#ay"/><use transform="matrix(0.05925925925925927,0,0,0.05925925925925927,26.074074074074076,0)" xlink:href="#av"/><use transform="matrix(0.05925925925925927,0,0,0.05925925925925927,33.12592592592593,0)" xlink:href="#aq"/><use transform="matrix(0.05925925925925927,0,0,0.05925925925925927,43.7925925925926,0)" xlink:href="#as"/><use transform="matrix(0.05925925925925927,0,0,0.05925925925925927,55.64444444444445,0)" xlink:href="#aF"/><use transform="matrix(0.05925925925925927,0,0,0.05925925925925927,67.49629629629631,0)" xlink:href="#aH"/></g><g id="Q"><use transform="matrix(0.05925925925925927,0,0,0.05925925925925927,0,0)" xlink:href="#ax"/><use transform="matrix(0.05925925925925927,0,0,0.05925925925925927,11.851851851851853,0)" xlink:href="#av"/><use transform="matrix(0.05925925925925927,0,0,0.05925925925925927,18.903703703703705,0)" xlink:href="#aC"/><use transform="matrix(0.05925925925925927,0,0,0.05925925925925927,23.58518518518519,0)" xlink:href="#aF"/><use transform="matrix(0.05925925925925927,0,0,0.05925925925925927,35.437037037037044,0)" xlink:href="#ar"/><use transform="matrix(0.05925925925925927,0,0,0.05925925925925927,41.36296296296297,0)" xlink:href="#aw"/><use transform="matrix(0.05925925925925927,0,0,0.05925925925925927,48.41481481481482,0)" xlink:href="#as"/><use transform="matrix(0.05925925925925927,0,0,0.05925925925925927,60.26666666666667,0)" xlink:href="#ap"/><use transform="matrix(0.05925925925925927,0,0,0.05925925925925927,72.11851851851853,0)" xlink:href="#ar"/></g><g id="R"><use transform="matrix(0.05925925925925927,0,0,0.05925925925925927,0,0)" xlink:href="#aE"/><use transform="matrix(0.05925925925925927,0,0,0.05925925925925927,14.222222222222225,0)" xlink:href="#av"/><use transform="matrix(0.05925925925925927,0,0,0.05925925925925927,21.27407407407408,0)" xlink:href="#aC"/><use transform="matrix(0.05925925925925927,0,0,0.05925925925925927,25.955555555555563,0)" xlink:href="#aF"/><use transform="matrix(0.05925925925925927,0,0,0.05925925925925927,37.80740740740742,0)" xlink:href="#ar"/><use transform="matrix(0.05925925925925927,0,0,0.05925925925925927,43.73333333333334,0)" xlink:href="#au"/><use transform="matrix(0.05925925925925927,0,0,0.05925925925925927,57.95555555555556,0)" xlink:href="#ar"/><use transform="matrix(0.05925925925925927,0,0,0.05925925925925927,63.881481481481494,0)" xlink:href="#av"/><use transform="matrix(0.05925925925925927,0,0,0.05925925925925927,70.93333333333334,0)" xlink:href="#ay"/><use transform="matrix(0.05925925925925927,0,0,0.05925925925925927,82.78518518518518,0)" xlink:href="#at"/><use transform="matrix(0.05925925925925927,0,0,0.05925925925925927,100.5037037037037,0)" xlink:href="#aH"/></g><path d="M175 0L67-191c6 58 2 128 3 191H24v-248h59L193-55c-6-58-2-129-3-193h46V0h-61" id="bj"/><path d="M220-157c-53 9-28 100-34 157h-49v-107c1-27-5-49-29-50C55-147 81-57 75 0H25l-1-190h47c2 12-1 28 3 38 10-53 101-56 108 0 13-22 24-43 59-42 82 1 51 116 57 194h-49v-107c-1-25-5-48-29-50" id="bk"/><g id="S"><use transform="matrix(0.044444444444444446,0,0,0.044444444444444446,0,0)" xlink:href="#bj"/><use transform="matrix(0.044444444444444446,0,0,0.044444444444444446,11.511111111111111,0)" xlink:href="#ag"/><use transform="matrix(0.044444444444444446,0,0,0.044444444444444446,20.4,0)" xlink:href="#bk"/><use transform="matrix(0.044444444444444446,0,0,0.044444444444444446,34.62222222222222,0)" xlink:href="#ad"/><use transform="matrix(0.044444444444444446,0,0,0.044444444444444446,43.511111111111106,0)" xlink:href="#aj"/><use transform="matrix(0.044444444444444446,0,0,0.044444444444444446,54.17777777777778,0)" xlink:href="#ak"/><use transform="matrix(0.044444444444444446,0,0,0.044444444444444446,63.91111111111111,0)" xlink:href="#ae"/><use transform="matrix(0.044444444444444446,0,0,0.044444444444444446,70.13333333333334,0)" xlink:href="#ac"/><use transform="matrix(0.044444444444444446,0,0,0.044444444444444446,75.42222222222223,0)" xlink:href="#aj"/><use transform="matrix(0.044444444444444446,0,0,0.044444444444444446,86.0888888888889,0)" xlink:href="#ac"/><use transform="matrix(0.044444444444444446,0,0,0.044444444444444446,91.37777777777781,0)" xlink:href="#ae"/><use transform="matrix(0.044444444444444446,0,0,0.044444444444444446,97.60000000000002,0)" xlink:href="#ag"/><use transform="matrix(0.044444444444444446,0,0,0.044444444444444446,106.48888888888891,0)" xlink:href="#ac"/><use transform="matrix(0.044444444444444446,0,0,0.044444444444444446,111.7777777777778,0)" xlink:href="#ad"/><use transform="matrix(0.044444444444444446,0,0,0.044444444444444446,120.66666666666669,0)" xlink:href="#al"/><use transform="matrix(0.044444444444444446,0,0,0.044444444444444446,130.40000000000003,0)" xlink:href="#am"/></g><g id="T"><use transform="matrix(0.05925925925925927,0,0,0.05925925925925927,0,0)" xlink:href="#ao"/><use transform="matrix(0.05925925925925927,0,0,0.05925925925925927,10.666666666666668,0)" xlink:href="#ap"/><use transform="matrix(0.05925925925925927,0,0,0.05925925925925927,22.51851851851852,0)" xlink:href="#aq"/><use transform="matrix(0.05925925925925927,0,0,0.05925925925925927,33.18518518518519,0)" xlink:href="#ar"/><use transform="matrix(0.05925925925925927,0,0,0.05925925925925927,39.111111111111114,0)" xlink:href="#as"/><use transform="matrix(0.05925925925925927,0,0,0.05925925925925927,50.96296296296297,0)" xlink:href="#at"/><use transform="matrix(0.05925925925925927,0,0,0.05925925925925927,68.68148148148148,0)" xlink:href="#au"/><use transform="matrix(0.05925925925925927,0,0,0.05925925925925927,82.90370370370371,0)" xlink:href="#as"/><use transform="matrix(0.05925925925925927,0,0,0.05925925925925927,94.75555555555556,0)" xlink:href="#av"/><use transform="matrix(0.05925925925925927,0,0,0.05925925925925927,101.80740740740741,0)" xlink:href="#ar"/><use transform="matrix(0.05925925925925927,0,0,0.05925925925925927,107.73333333333333,0)" xlink:href="#aw"/><use transform="matrix(0.05925925925925927,0,0,0.05925925925925927,114.78518518518518,0)" xlink:href="#ax"/><use transform="matrix(0.05925925925925927,0,0,0.05925925925925927,126.63703703703703,0)" xlink:href="#ay"/><use transform="matrix(0.05925925925925927,0,0,0.05925925925925927,138.48888888888888,0)" xlink:href="#as"/><use transform="matrix(0.05925925925925927,0,0,0.05925925925925927,150.34074074074073,0)" xlink:href="#ax"/><use transform="matrix(0.05925925925925927,0,0,0.05925925925925927,162.19259259259258,0)" xlink:href="#az"/><use transform="matrix(0.05925925925925927,0,0,0.05925925925925927,166.87407407407406,0)" xlink:href="#ay"/></g><g id="U"><use transform="matrix(0.05925925925925927,0,0,0.05925925925925927,0,0)" xlink:href="#aB"/><use transform="matrix(0.05925925925925927,0,0,0.05925925925925927,11.851851851851853,0)" xlink:href="#aC"/><use transform="matrix(0.05925925925925927,0,0,0.05925925925925927,16.533333333333335,0)" xlink:href="#aq"/><use transform="matrix(0.05925925925925927,0,0,0.05925925925925927,27.200000000000003,0)" xlink:href="#ar"/><use transform="matrix(0.05925925925925927,0,0,0.05925925925925927,33.12592592592593,0)" xlink:href="#aD"/><use transform="matrix(0.05925925925925927,0,0,0.05925925925925927,45.57037037037037,0)" xlink:href="#aE"/><use transform="matrix(0.05925925925925927,0,0,0.05925925925925927,59.7925925925926,0)" xlink:href="#ay"/><use transform="matrix(0.05925925925925927,0,0,0.05925925925925927,71.64444444444445,0)" xlink:href="#av"/><use transform="matrix(0.05925925925925927,0,0,0.05925925925925927,78.6962962962963,0)" xlink:href="#aq"/><use transform="matrix(0.05925925925925927,0,0,0.05925925925925927,89.36296296296297,0)" xlink:href="#as"/><use transform="matrix(0.05925925925925927,0,0,0.05925925925925927,101.21481481481482,0)" xlink:href="#aF"/><use transform="matrix(0.05925925925925927,0,0,0.05925925925925927,113.06666666666666,0)" xlink:href="#aG"/><use transform="matrix(0.05925925925925927,0,0,0.05925925925925927,125.5111111111111,0)" xlink:href="#aH"/></g><path d="M199 0l-22-63H83L61 0H9l90-248h61L250 0h-51zm-33-102l-36-108c-10 38-24 72-36 108h72" id="bl"/><g id="V"><use transform="matrix(0.044444444444444446,0,0,0.044444444444444446,0,0)" xlink:href="#bl"/><use transform="matrix(0.044444444444444446,0,0,0.044444444444444446,11.511111111111111,0)" xlink:href="#al"/><use transform="matrix(0.044444444444444446,0,0,0.044444444444444446,21.244444444444447,0)" xlink:href="#ad"/><use transform="matrix(0.044444444444444446,0,0,0.044444444444444446,30.133333333333333,0)" xlink:href="#aj"/><use transform="matrix(0.044444444444444446,0,0,0.044444444444444446,40.800000000000004,0)" xlink:href="#ak"/><use transform="matrix(0.044444444444444446,0,0,0.044444444444444446,50.53333333333334,0)" xlink:href="#ae"/><use transform="matrix(0.044444444444444446,0,0,0.044444444444444446,56.75555555555556,0)" xlink:href="#ac"/><use transform="matrix(0.044444444444444446,0,0,0.044444444444444446,62.044444444444444,0)" xlink:href="#aj"/><use transform="matrix(0.044444444444444446,0,0,0.044444444444444446,72.71111111111112,0)" xlink:href="#ac"/><use transform="matrix(0.044444444444444446,0,0,0.044444444444444446,78.00000000000001,0)" xlink:href="#ae"/><use transform="matrix(0.044444444444444446,0,0,0.044444444444444446,84.22222222222224,0)" xlink:href="#ag"/><use transform="matrix(0.044444444444444446,0,0,0.044444444444444446,93.11111111111113,0)" xlink:href="#ac"/><use transform="matrix(0.044444444444444446,0,0,0.044444444444444446,98.40000000000002,0)" xlink:href="#ad"/><use transform="matrix(0.044444444444444446,0,0,0.044444444444444446,107.28888888888892,0)" xlink:href="#al"/><use transform="matrix(0.044444444444444446,0,0,0.044444444444444446,117.02222222222224,0)" xlink:href="#am"/></g><path fill="#333" d="M186 0v-106H76V0H24v-248h52v99h110v-99h50V0h-50" id="bm"/><path fill="#333" d="M195-6C206 82 75 100 31 46c-4-6-6-13-8-21l49-6c3 16 16 24 34 25 40 0 42-37 40-79-11 22-30 35-61 35-53 0-70-43-70-97 0-56 18-96 73-97 30 0 46 14 59 34l2-30h47zm-90-29c32 0 41-27 41-63 0-35-9-62-40-62-32 0-39 29-40 63 0 36 9 62 39 62" id="bn"/><path fill="#333" d="M114-157C55-157 80-60 75 0H25v-261h50l-1 109c12-26 28-41 61-42 86-1 58 113 63 194h-50c-7-57 23-157-34-157" id="bo"/><path fill="#333" d="M169-182c-1-43-94-46-97-3 18 66 151 10 154 114 3 95-165 93-204 36-6-8-10-19-12-30l50-8c3 46 112 56 116 5-17-69-150-10-154-114-4-87 153-88 188-35 5 8 8 18 10 28" id="bp"/><path fill="#333" d="M133-34C117-15 103 5 69 4 32 3 11-16 11-54c-1-60 55-63 116-61 1-26-3-47-28-47-18 1-26 9-28 27l-52-2c7-38 36-58 82-57s74 22 75 68l1 82c-1 14 12 18 25 15v27c-30 8-71 5-69-32zm-48 3c29 0 43-24 42-57-32 0-66-3-65 30 0 17 8 27 23 27" id="bq"/><path fill="#333" d="M123 10C108 53 80 86 19 72V37c35 8 53-11 59-39L3-190h52l48 148c12-52 28-100 44-148h51" id="br"/><g id="W"><use transform="matrix(0.044444444444444446,0,0,0.044444444444444446,0,0)" xlink:href="#bm"/><use transform="matrix(0.044444444444444446,0,0,0.044444444444444446,11.511111111111111,0)" xlink:href="#aL"/><use transform="matrix(0.044444444444444446,0,0,0.044444444444444446,20.4,0)" xlink:href="#bd"/><use transform="matrix(0.044444444444444446,0,0,0.044444444444444446,24.84444444444444,0)" xlink:href="#bn"/><use transform="matrix(0.044444444444444446,0,0,0.044444444444444446,34.577777777777776,0)" xlink:href="#bo"/><use transform="matrix(0.044444444444444446,0,0,0.044444444444444446,44.31111111111111,0)" xlink:href="#be"/><use transform="matrix(0.044444444444444446,0,0,0.044444444444444446,49.6,0)" xlink:href="#bp"/><use transform="matrix(0.044444444444444446,0,0,0.044444444444444446,60.266666666666666,0)" xlink:href="#aO"/><use transform="matrix(0.044444444444444446,0,0,0.044444444444444446,70,0)" xlink:href="#aM"/><use transform="matrix(0.044444444444444446,0,0,0.044444444444444446,76.22222222222223,0)" xlink:href="#be"/><use transform="matrix(0.044444444444444446,0,0,0.044444444444444446,81.51111111111112,0)" xlink:href="#bp"/><use transform="matrix(0.044444444444444446,0,0,0.044444444444444446,92.17777777777778,0)" xlink:href="#be"/><use transform="matrix(0.044444444444444446,0,0,0.044444444444444446,97.4666666666667,0)" xlink:href="#aM"/><use transform="matrix(0.044444444444444446,0,0,0.044444444444444446,103.68888888888891,0)" xlink:href="#bq"/><use transform="matrix(0.044444444444444446,0,0,0.044444444444444446,112.5777777777778,0)" xlink:href="#be"/><use transform="matrix(0.044444444444444446,0,0,0.044444444444444446,117.86666666666669,0)" xlink:href="#aL"/><use transform="matrix(0.044444444444444446,0,0,0.044444444444444446,126.75555555555557,0)" xlink:href="#bn"/><use transform="matrix(0.044444444444444446,0,0,0.044444444444444446,136.4888888888889,0)" xlink:href="#br"/></g><path fill="#333" d="M275 0h-61l-44-196L126 0H64L0-248h53L97-49l45-199h58l43 199 44-199h52" id="bs"/><g id="X"><use transform="matrix(0.044444444444444446,0,0,0.044444444444444446,0,0)" xlink:href="#bs"/><use transform="matrix(0.044444444444444446,0,0,0.044444444444444446,14.755555555555553,0)" xlink:href="#aL"/><use transform="matrix(0.044444444444444446,0,0,0.044444444444444446,23.644444444444446,0)" xlink:href="#bd"/><use transform="matrix(0.044444444444444446,0,0,0.044444444444444446,28.08888888888889,0)" xlink:href="#bn"/><use transform="matrix(0.044444444444444446,0,0,0.044444444444444446,37.82222222222222,0)" xlink:href="#bo"/><use transform="matrix(0.044444444444444446,0,0,0.044444444444444446,47.55555555555556,0)" xlink:href="#be"/><use transform="matrix(0.044444444444444446,0,0,0.044444444444444446,52.84444444444445,0)" xlink:href="#bp"/><use transform="matrix(0.044444444444444446,0,0,0.044444444444444446,63.51111111111113,0)" xlink:href="#be"/><use transform="matrix(0.044444444444444446,0,0,0.044444444444444446,68.80000000000001,0)" xlink:href="#aM"/><use transform="matrix(0.044444444444444446,0,0,0.044444444444444446,75.02222222222224,0)" xlink:href="#bq"/><use transform="matrix(0.044444444444444446,0,0,0.044444444444444446,83.91111111111113,0)" xlink:href="#be"/><use transform="matrix(0.044444444444444446,0,0,0.044444444444444446,89.20000000000002,0)" xlink:href="#aL"/><use transform="matrix(0.044444444444444446,0,0,0.044444444444444446,98.08888888888892,0)" xlink:href="#bn"/><use transform="matrix(0.044444444444444446,0,0,0.044444444444444446,107.82222222222225,0)" xlink:href="#br"/></g><g id="Y"><use transform="matrix(0.04074074074074074,0,0,0.04074074074074074,0,0)" xlink:href="#aD"/><use transform="matrix(0.04074074074074074,0,0,0.04074074074074074,8.555555555555555,0)" xlink:href="#aD"/><use transform="matrix(0.04074074074074074,0,0,0.04074074074074074,17.11111111111111,0)" xlink:href="#ap"/><use transform="matrix(0.04074074074074074,0,0,0.04074074074074074,25.259259259259263,0)" xlink:href="#aq"/><use transform="matrix(0.04074074074074074,0,0,0.04074074074074074,32.592592592592595,0)" xlink:href="#ay"/><use transform="matrix(0.04074074074074074,0,0,0.04074074074074074,40.74074074074074,0)" xlink:href="#aG"/><use transform="matrix(0.04074074074074074,0,0,0.04074074074074074,49.2962962962963,0)" xlink:href="#aG"/></g></defs></g></svg>